<svg data-v-fde0c5aa="" xmlns="http://www.w3.org/2000/svg" viewBox="0 0 300 300" class="iconLeftSlogan"><!----><defs data-v-fde0c5aa=""><!----></defs><rect data-v-fde0c5aa="" fill="#FFFFFF" x="0" y="0" width="300px" height="300px" class="logo-background-square"></rect><defs data-v-fde0c5aa=""><!----></defs><g data-v-fde0c5aa="" id="7e0e340b-70a0-43d2-959e-0844dd5af2d6" fill="#262626" transform="matrix(2.388254069519189,0,0,2.388254069519189,139.22599414146435,118.68483254342206)"><path d="M5.95 8.99L5.95 8.99L5.95 8.99Q6.17 9.27 6.52 9.72L6.52 9.72L6.52 9.72Q6.86 10.18 7.22 10.73L7.22 10.73L7.22 10.73Q7.59 11.28 7.95 11.89L7.95 11.89L7.95 11.89Q8.30 12.49 8.55 13.05L8.55 13.05L7.07 13.05L7.07 13.05Q6.79 12.52 6.46 11.97L6.46 11.97L6.46 11.97Q6.13 11.42 5.80 10.93L5.80 10.93L5.80 10.93Q5.46 10.43 5.13 10.00L5.13 10.00L5.13 10.00Q4.80 9.56 4.54 9.24L4.54 9.24L4.54 9.24Q4.35 9.25 4.17 9.25L4.17 9.25L4.17 9.25Q3.98 9.25 3.78 9.25L3.78 9.25L2.56 9.25L2.56 13.05L1.20 13.05L1.20 3.49L1.20 3.49Q1.78 3.35 2.48 3.30L2.48 3.30L2.48 3.30Q3.19 3.25 3.78 3.25L3.78 3.25L3.78 3.25Q5.82 3.25 6.90 4.02L6.90 4.02L6.90 4.02Q7.97 4.79 7.97 6.31L7.97 6.31L7.97 6.31Q7.97 7.28 7.46 7.97L7.46 7.97L7.46 7.97Q6.94 8.65 5.95 8.99ZM3.89 4.44L3.89 4.44L3.89 4.44Q3.02 4.44 2.56 4.48L2.56 4.48L2.56 8.13L3.53 8.13L3.53 8.13Q4.23 8.13 4.79 8.06L4.79 8.06L4.79 8.06Q5.35 7.99 5.73 7.80L5.73 7.80L5.73 7.80Q6.12 7.60 6.33 7.25L6.33 7.25L6.33 7.25Q6.54 6.89 6.54 6.30L6.54 6.30L6.54 6.30Q6.54 5.75 6.33 5.39L6.33 5.39L6.33 5.39Q6.12 5.03 5.76 4.82L5.76 4.82L5.76 4.82Q5.40 4.61 4.92 4.52L4.92 4.52L4.92 4.52Q4.44 4.44 3.89 4.44ZM11.23 5.77L11.23 13.05L9.93 13.05L9.93 5.77L11.23 5.77ZM10.57 4.45L10.57 4.45L10.57 4.45Q10.22 4.45 9.98 4.22L9.98 4.22L9.98 4.22Q9.73 3.99 9.73 3.60L9.73 3.60L9.73 3.60Q9.73 3.21 9.98 2.97L9.98 2.97L9.98 2.97Q10.22 2.74 10.57 2.74L10.57 2.74L10.57 2.74Q10.92 2.74 11.17 2.97L11.17 2.97L11.17 2.97Q11.41 3.21 11.41 3.60L11.41 3.60L11.41 3.60Q11.41 3.99 11.17 4.22L11.17 4.22L11.17 4.22Q10.92 4.45 10.57 4.45ZM18.17 11.91L18.17 7.31L18.17 7.31Q17.93 7.11 17.49 6.93L17.49 6.93L17.49 6.93Q17.04 6.75 16.51 6.75L16.51 6.75L16.51 6.75Q15.95 6.75 15.55 6.95L15.55 6.95L15.55 6.95Q15.15 7.15 14.90 7.51L14.90 7.51L14.90 7.51Q14.64 7.87 14.53 8.36L14.53 8.36L14.53 8.36Q14.42 8.85 14.42 9.41L14.42 9.41L14.42 9.41Q14.42 10.68 15.05 11.38L15.05 11.38L15.05 11.38Q15.68 12.07 16.73 12.07L16.73 12.07L16.73 12.07Q17.26 12.07 17.62 12.02L17.62 12.02L17.62 12.02Q17.98 11.97 18.17 11.91L18.17 11.91ZM18.17 6.09L18.17 2.41L19.47 2.18L19.47 12.84L19.47 12.84Q19.03 12.96 18.33 13.09L18.33 13.09L18.33 13.09Q17.63 13.22 16.72 13.22L16.72 13.22L16.72 13.22Q15.88 13.22 15.20 12.95L15.20 12.95L15.20 12.95Q14.53 12.68 14.06 12.19L14.06 12.19L14.06 12.19Q13.58 11.70 13.32 11.00L13.32 11.00L13.32 11.00Q13.06 10.29 13.06 9.41L13.06 9.41L13.06 9.41Q13.06 8.57 13.28 7.87L13.28 7.87L13.28 7.87Q13.50 7.17 13.92 6.66L13.92 6.66L13.92 6.66Q14.34 6.16 14.95 5.88L14.95 5.88L14.95 5.88Q15.55 5.60 16.34 5.60L16.34 5.60L16.34 5.60Q16.97 5.60 17.45 5.77L17.45 5.77L17.45 5.77Q17.93 5.94 18.17 6.09L18.17 6.09ZM21.31 9.42L21.31 9.42L21.31 9.42Q21.31 8.46 21.59 7.74L21.59 7.74L21.59 7.74Q21.87 7.01 22.33 6.54L22.33 6.54L22.33 6.54Q22.79 6.06 23.39 5.82L23.39 5.82L23.39 5.82Q24.00 5.59 24.63 5.59L24.63 5.59L24.63 5.59Q26.10 5.59 26.88 6.50L26.88 6.50L26.88 6.50Q27.66 7.42 27.66 9.30L27.66 9.30L27.66 9.30Q27.66 9.38 27.66 9.51L27.66 9.51L27.66 9.51Q27.66 9.65 27.65 9.76L27.65 9.76L22.67 9.76L22.67 9.76Q22.75 10.89 23.32 11.48L23.32 11.48L23.32 11.48Q23.90 12.07 25.12 12.07L25.12 12.07L25.12 12.07Q25.80 12.07 26.27 11.95L26.27 11.95L26.27 11.95Q26.74 11.83 26.98 11.72L26.98 11.72L27.16 12.81L27.16 12.81Q26.92 12.94 26.33 13.08L26.33 13.08L26.33 13.08Q25.73 13.22 24.98 13.22L24.98 13.22L24.98 13.22Q24.02 13.22 23.33 12.93L23.33 12.93L23.33 12.93Q22.64 12.64 22.19 12.14L22.19 12.14L22.19 12.14Q21.74 11.63 21.53 10.94L21.53 10.94L21.53 10.94Q21.31 10.25 21.31 9.42ZM22.69 8.71L26.31 8.71L26.31 8.71Q26.32 7.83 25.87 7.26L25.87 7.26L25.87 7.26Q25.41 6.69 24.61 6.69L24.61 6.69L24.61 6.69Q24.16 6.69 23.82 6.87L23.82 6.87L23.82 6.87Q23.48 7.04 23.24 7.32L23.24 7.32L23.24 7.32Q23.00 7.60 22.87 7.97L22.87 7.97L22.87 7.97Q22.74 8.33 22.69 8.71L22.69 8.71ZM32.23 5.61L32.23 5.61L32.23 5.61Q32.40 5.61 32.61 5.63L32.61 5.63L32.61 5.63Q32.83 5.66 33.04 5.69L33.04 5.69L33.04 5.69Q33.25 5.73 33.43 5.76L33.43 5.76L33.43 5.76Q33.60 5.80 33.68 5.82L33.68 5.82L33.46 6.96L33.46 6.96Q33.31 6.90 32.95 6.83L32.95 6.83L32.95 6.83Q32.59 6.75 32.03 6.75L32.03 6.75L32.03 6.75Q31.67 6.75 31.31 6.83L31.31 6.83L31.31 6.83Q30.95 6.90 30.84 6.93L30.84 6.93L30.84 13.05L29.54 13.05L29.54 6.08L29.54 6.08Q30.00 5.91 30.69 5.76L30.69 5.76L30.69 5.76Q31.37 5.61 32.23 5.61ZM33.75 15.67L33.75 15.67L33.75 15.67Q33.59 15.67 33.32 15.62L33.32 15.62L33.32 15.62Q33.05 15.58 32.87 15.51L32.87 15.51L33.04 14.45L33.04 14.45Q33.18 14.49 33.36 14.52L33.36 14.52L33.36 14.52Q33.54 14.55 33.70 14.55L33.70 14.55L33.70 14.55Q34.37 14.55 34.66 14.13L34.66 14.13L34.66 14.13Q34.94 13.72 34.94 12.92L34.94 12.92L34.94 5.77L36.25 5.77L36.25 12.91L36.25 12.91Q36.25 14.31 35.61 14.99L35.61 14.99L35.61 14.99Q34.97 15.67 33.75 15.67ZM35.59 4.45L35.59 4.45L35.59 4.45Q35.24 4.45 34.99 4.22L34.99 4.22L34.99 4.22Q34.75 3.99 34.75 3.60L34.75 3.60L34.75 3.60Q34.75 3.21 34.99 2.97L34.99 2.97L34.99 2.97Q35.24 2.74 35.59 2.74L35.59 2.74L35.59 2.74Q35.94 2.74 36.18 2.97L36.18 2.97L36.18 2.97Q36.43 3.21 36.43 3.60L36.43 3.60L36.43 3.60Q36.43 3.99 36.18 4.22L36.18 4.22L36.18 4.22Q35.94 4.45 35.59 4.45ZM38.08 9.42L38.08 9.42L38.08 9.42Q38.08 8.46 38.36 7.74L38.36 7.74L38.36 7.74Q38.64 7.01 39.10 6.54L39.10 6.54L39.10 6.54Q39.56 6.06 40.17 5.82L40.17 5.82L40.17 5.82Q40.77 5.59 41.40 5.59L41.40 5.59L41.40 5.59Q42.87 5.59 43.65 6.50L43.65 6.50L43.65 6.50Q44.44 7.42 44.44 9.30L44.44 9.30L44.44 9.30Q44.44 9.38 44.44 9.51L44.44 9.51L44.44 9.51Q44.44 9.65 44.42 9.76L44.42 9.76L39.44 9.76L39.44 9.76Q39.52 10.89 40.10 11.48L40.10 11.48L40.10 11.48Q40.67 12.07 41.89 12.07L41.89 12.07L41.89 12.07Q42.57 12.07 43.04 11.95L43.04 11.95L43.04 11.95Q43.51 11.83 43.75 11.72L43.75 11.72L43.93 12.81L43.93 12.81Q43.69 12.94 43.10 13.08L43.10 13.08L43.10 13.08Q42.50 13.22 41.75 13.22L41.75 13.22L41.75 13.22Q40.80 13.22 40.10 12.93L40.10 12.93L40.10 12.93Q39.41 12.64 38.96 12.14L38.96 12.14L38.96 12.14Q38.51 11.63 38.30 10.94L38.30 10.94L38.30 10.94Q38.08 10.25 38.08 9.42ZM39.47 8.71L43.08 8.71L43.08 8.71Q43.09 7.83 42.64 7.26L42.64 7.26L42.64 7.26Q42.18 6.69 41.38 6.69L41.38 6.69L41.38 6.69Q40.94 6.69 40.59 6.87L40.59 6.87L40.59 6.87Q40.25 7.04 40.01 7.32L40.01 7.32L40.01 7.32Q39.77 7.60 39.64 7.97L39.64 7.97L39.64 7.97Q39.51 8.33 39.47 8.71L39.47 8.71ZM47.53 3.51L47.53 5.77L50.29 5.77L50.29 6.86L47.53 6.86L47.53 10.22L47.53 10.22Q47.53 10.77 47.61 11.12L47.61 11.12L47.61 11.12Q47.70 11.48 47.87 11.68L47.87 11.68L47.87 11.68Q48.03 11.89 48.29 11.97L48.29 11.97L48.29 11.97Q48.54 12.05 48.87 12.05L48.87 12.05L48.87 12.05Q49.46 12.05 49.82 11.92L49.82 11.92L49.82 11.92Q50.18 11.79 50.32 11.73L50.32 11.73L50.57 12.81L50.57 12.81Q50.37 12.91 49.88 13.05L49.88 13.05L49.88 13.05Q49.39 13.20 48.76 13.20L48.76 13.20L48.76 13.20Q48.02 13.20 47.54 13.01L47.54 13.01L47.54 13.01Q47.05 12.82 46.76 12.45L46.76 12.45L46.76 12.45Q46.47 12.07 46.35 11.52L46.35 11.52L46.35 11.52Q46.23 10.96 46.23 10.23L46.23 10.23L46.23 3.74L47.53 3.51Z"></path></g><defs data-v-fde0c5aa=""><!----></defs><g data-v-fde0c5aa="" id="870af913-6a2d-4274-bb16-c368d7ec8efe" stroke="none" fill="#4CBBE5" transform="matrix(1.065569870127856,0,0,1.065569870127856,36.90718278125753,103.75701484942074)"><path d="M39.458 46.904c-6.531-1.195-11.676 3.256-14.16 6.016a.807.807 0 1 0 1.199 1.078c2.259-2.508 6.912-6.561 12.672-5.508 2.99.547 4.146 3.268 4.23 5.631a.805.805 0 0 0 .805.777h.029a.806.806 0 0 0 .777-.834c-.135-3.757-2.314-6.568-5.552-7.16zM71.387 62.559c-.118 1.355.302 2.631 1.184 3.594.878.957 2.104 1.486 3.452 1.486 2.723 0 5.133-2.215 5.371-4.938.118-1.354-.302-2.629-1.185-3.592-.878-.957-2.104-1.484-3.452-1.484-2.723 0-5.132 2.213-5.37 4.934zm5.37-3.323c.892 0 1.695.342 2.264.963.573.625.846 1.463.767 2.359-.166 1.912-1.856 3.467-3.765 3.467-.891 0-1.694-.342-2.264-.963-.572-.627-.845-1.465-.767-2.363.167-1.908 1.856-3.463 3.765-3.463z"></path><path d="M86.462 55.717c-1.709-4.639-4.732-6.707-9.803-6.707-1.367 0-2.618.262-3.687.65.712-1.6.839-3.283.388-5.107-.226-.905-.992-3.257-1.803-5.748-.401-1.234-.813-2.497-1.164-3.602.202.014.405.024.605.024.84 0 1.62-.167 1.926-.884.501-1.17.746-3.993.454-5.207l-.013-.065c-.22-1.182-1.246-1.424-2.721-1.424-.924 0-1.477.182-2.198.727l-5.929 1.168c1.22-1.03 2.549-2.221 3.387-3.118.018-.007.036-.01.053-.018.863-.399 1.82-.769 2.143-.83.051.023.127.062.188.093.444.229 1.188.613 2.425.464 1.729-.207 3.141-2.103 3.707-3.929 1.033.097 1.858.183 1.877.185h.038a.982.982 0 0 0 .155-.006.668.668 0 0 0 .154-.036.876.876 0 0 0 .269-.156c.021-.019.042-.039.062-.06a.687.687 0 0 0 .129-.19.532.532 0 0 0 .03-.069.47.47 0 0 0 .026-.083c.004-.012.009-.023.012-.036l.003-.036c.003-.015.009-.03.01-.045.002-.018-.001-.035 0-.052.035-.516-.352-.957-.8-1.46-.131-.147-.341-.382-.425-.507-.157-1.848-1.27-4.082-3.922-4.456-3.242-.458-5.827 1.287-6.89 4.584-.143-.018-.288-.025-.431-.039-.049-.008-.097-.022-.146-.027a.758.758 0 0 0-.165 0c-5.553-.441-11.598 1.705-16.098 5.798-5.22 4.75-6.417 9.754-5.319 12.394.126.304.4.617.774.928h-2.657l.914-10.448a.804.804 0 0 0-.803-.877h-3.858l-1.337-7.951a.818.818 0 0 0-.061-.199c-1.022-2.256-3.123-3.616-5.618-3.637-1.792-.019-3.34.717-3.863 1.822a2.044 2.044 0 0 0-.192.719c-1.621-.198-3.254.397-3.861 1.576-.174.338-.506 1.258.29 2.318a3.533 3.533 0 0 0-1.189.823c-.862.9-1.106 2.065-.624 2.968.444.83 1.608 1.703 4.622 1.23l.721.383a.806.806 0 0 0-.521.684l-.991 11.325a.805.805 0 0 0 .803.876h5.403a2.542 2.542 0 0 0-.129.287l-1.075 3.023a.79.79 0 0 0-.04.188c-8.323 6.046-12.344 13.88-11.453 16.634.234.725.813 1.156 1.546 1.156h2.922a9.445 9.445 0 0 0-.11.826c-.213 2.434.54 4.723 2.12 6.447 1.572 1.717 3.772 2.662 6.194 2.662 4.945 0 9.321-4.023 9.754-8.969.029-.322.035-.646.029-.967h20.36c1.659 0 2.82-.371 3.746-.984.075.145.166.275.273.393.35.383.859.592 1.433.592h.959c-.05.275-.089.551-.112.826-.213 2.434.54 4.723 2.12 6.447 1.572 1.717 3.771 2.662 6.194 2.662 4.945 0 9.321-4.023 9.754-8.969.191-2.193-.402-4.258-1.653-5.889l1.939-.008a.807.807 0 0 0 .75-1.087zM70.521 24.533c-.749.089-1.127-.106-1.494-.296-.215-.111-.438-.226-.707-.267-.117-.018-.393-.058-1.248.234.081-.477.096-.976.026-1.472.354.05.738.089 1.097.089.53 0 1.076-.268 1.604-.526.267-.131.713-.35.866-.354.453 0 1.248.052 2.099.12-.488 1.287-1.441 2.376-2.243 2.472zm1.29-7.741c2.255.317 2.518 2.619 2.548 3.077.017.261.132.497.304.738-1.376-.129-3.167-.28-3.996-.28-.52 0-1.057.264-1.576.519-.275.135-.736.361-.895.362-.597 0-1.334-.143-1.721-.227a.759.759 0 0 0 .04-.113c.704-2.921 2.687-4.444 5.296-4.076zm-22.419 9.912c4.228-3.845 9.899-5.843 15.063-5.374.474.093.751.642.851.883.38.927.28 2.096-.231 2.72-1.183 1.444-4.944 4.536-5.962 5.28l-1.102.217a.806.806 0 0 0 .311 1.582L68.6 29.986c.26.166.645.475.617.787-.021.236-.61.651-1.265.914-.61-.25-1.912-.629-3.243-.033-1.879.84-7.214 2.948-8.585 3.044-.465.03-.897-.1-1.194-.361-.286-.252-.445-.623-.473-1.102-.052-.937 2.495-5.478 4.831-7.443a.807.807 0 0 0-1.037-1.234c-2.419 2.035-5.499 7.032-5.403 8.767.011.185.037.361.071.533l-.113-.025c-1.264-.337-5.561-1.04-8.115-.533.711-2.013 2.234-4.352 4.701-6.596zm4.276 18.59a.803.803 0 0 0 .543-.724c.02-.036.044-.066.057-.106l.556-1.561c.684.106 1.339.202 1.862.276-1.155 2.16-3.844 7.242-5.295 10.402-.535 1.168-.614 2.119-.623 2.676h-.442c-.905 0-1.608-.582-1.93-1.598-.723-2.282.636-6.05 5.272-9.365zm-.813 8.96c1.851-4.029 5.758-11.259 5.798-11.333a.811.811 0 0 0 .01-.75.81.81 0 0 0-.614-.433c-.039-.005-3.927-.514-5.893-.95-2.44-.542-7.283-2.657-7.679-3.503-.243-.584-.318-1.323-.222-2.163.62-.628 5.406-.47 8.15.271l.026.004c.007.002.016.006.024.007 2.199.444 7.652 3.243 8.687 4.31 1.677 1.73 1.263 2.625.385 4.059-.977 1.594-6.334 9.615-6.388 9.697a.805.805 0 0 0 .562 1.246c.712.096 2.322.533 2.759 1.26a.691.691 0 0 1 .1.281h-6.18c.009-.441.078-1.136.475-2.003zm7.317 1.975a2.313 2.313 0 0 0-.33-1.082c-.575-.955-1.78-1.482-2.709-1.76 1.476-2.211 4.975-7.472 5.77-8.771 1.067-1.745 1.825-3.518-.604-6.023-.663-.684-2.403-1.733-4.284-2.681 2.234-.662 5.447-1.973 6.808-2.551.799 2.587 2.714 8.796 3.23 10.61.683 2.396-.223 4.103-.964 5.177-.385.559-.663.965-.907 1.322-.545.793-.92 1.344-1.938 2.787-1.38 1.958-1.991 2.813-4.072 2.972zM29.58 27.508l-2.383-1.268 7.432-5.239 1.094 6.506H29.58zm-.784-6.98c.464-.543 2.364-.635 3.797-.063l-2.748 1.937c-.994-.961-1.256-1.633-1.049-1.874zm-.576 3.019l-2.081 1.467c-.761-.5-.936-.862-.932-.972.003-.068.133-.233.468-.384.664-.3 1.667-.358 2.545-.111zm-.283-5.315c.213-.45 1.176-.899 2.393-.899.626.005 2.604.183 3.806 2.044l-.063.045c-1.654-1.011-4.392-1.307-5.898-.434-.009-.012-.012-.026-.022-.038-.355-.425-.251-.645-.216-.718zm-4.078 2.344c.327-.636 1.974-1.073 3.308-.392l.02.008c-.12.414-.118.942.187 1.596-.793-.037-1.557.089-2.178.333-.996-.559-1.532-1.166-1.337-1.545zm-1.534 4.611c-.142-.264.013-.724.366-1.093.243-.253.587-.468.983-.545a1.679 1.679 0 0 0-.077.424c-.025.591.245 1.163.8 1.709-1.267.08-1.908-.187-2.072-.495zm4.941 3.933H40.337l-.85 9.712H26.416l.85-9.712zm12.96 11.325h6.279c2.071.962 4.432 1.724 5.302 1.917.408.091.893.183 1.4.273l-.388 1.094H31.455l.875-2.458c.153-.432.671-.826 1.087-.826h6.809zm-1.163 22.114c-.362 4.135-4.018 7.496-8.148 7.496-1.965 0-3.742-.76-5.006-2.137-1.271-1.389-1.875-3.24-1.702-5.219a7.9 7.9 0 0 1 .154-.967h2.414c-.069.271-.12.549-.145.826-.118 1.355.302 2.631 1.185 3.594.878.957 2.104 1.486 3.452 1.486 2.724 0 5.133-2.215 5.371-4.939a4.954 4.954 0 0 0-.011-.967h2.458a7.89 7.89 0 0 1-.022.827zM35 61.732c.043.27.056.545.032.826-.167 1.912-1.856 3.467-3.765 3.467-.891 0-1.694-.342-2.264-.963-.573-.627-.845-1.465-.767-2.361.029-.332.104-.654.224-.969H35zm-15.209-1.613c-.034-.078-.106-.322-.025-.889.375-2.615 3.626-8.672 10.748-13.889h20.498c-4.147 3.655-4.892 7.463-4.152 9.805.532 1.68 1.859 2.725 3.467 2.725h9.062c3.578 0 4.554-1.387 6.174-3.684 1.025-1.453 1.403-2.008 1.951-2.807.243-.355.521-.762.904-1.318 1.452-2.105 1.84-4.243 1.187-6.533-.516-1.813-2.405-7.945-3.219-10.577.636.039 1.128.303 1.132.305.194.11.428.135.641.067.422-.133 2.531-.876 2.666-2.413.058-.656-.211-1.207-.583-1.633.117-.015.248-.021.406-.021.705 0 1.016.071 1.136.111l.03.144c.186.773.035 3.063-.317 4.063-.331.082-1.159.007-1.531-.026a8.25 8.25 0 0 0-.694-.046c-.013 0-.024.003-.038.004a.765.765 0 0 0-.164.025c-.012.003-.024.003-.036.007-.012.003-.022.01-.035.015-.026.01-.053.021-.079.033-.022.012-.045.023-.066.036-.021.014-.044.029-.064.044a1.504 1.504 0 0 0-.062.05c-.019.017-.035.035-.053.054a.726.726 0 0 0-.049.061c-.016.021-.029.042-.043.064a.91.91 0 0 0-.089.215.846.846 0 0 0-.024.16c0 .012-.003.023-.003.036 0 .012.003.023.003.036.002.028.004.057.009.085a.773.773 0 0 0 .016.081c.003.012.004.024.008.036.41 1.327.978 3.071 1.526 4.756.768 2.354 1.56 4.788 1.771 5.638.479 1.931.172 3.601-.966 5.253a800.942 800.942 0 0 1-4.602 6.576c-.506.719-.938 1.326-1.39 1.822a.794.794 0 0 0-.121.131c-.878.91-1.867 1.396-3.66 1.396l-41.27.002zm64.027 2.44c-.361 4.135-4.018 7.496-8.148 7.496-1.965 0-3.742-.76-5.006-2.137-1.271-1.389-1.875-3.24-1.703-5.219.033-.371.099-.742.185-1.107.815-.32 1.644-1.158 2.635-2.164 1.14-1.156 2.557-2.596 3.56-2.596 2.093 0 4.354-.006 6.229-.014 1.625 1.403 2.446 3.483 2.248 5.741zm-8.478-7.34c-1.677 0-3.288 1.635-4.709 3.078-.667.678-1.783 1.811-2.171 1.824h-1.951c-.068 0-.189-.01-.244-.068-.06-.066-.111-.232-.115-.51.482-.551.926-1.174 1.396-1.842 1.495-2.119 2.725-3.875 3.679-5.246.024-.016.051-.031.074-.051.976-.822 2.966-1.783 5.361-1.783 3.991 0 6.337 1.342 7.843 4.574-1.905.01-5.758.024-9.163.024z"></path><path d="M13.132 38.401h7.962a.806.806 0 0 0 0-1.612h-7.962a.806.806 0 0 0 0 1.612zM23.228 43.109a.806.806 0 0 0-.806-.806H3.709a.806.806 0 1 0 0 1.613h18.712a.807.807 0 0 0 .807-.807zM15.22 47.961H7.813a.806.806 0 0 0 0 1.612h7.408a.806.806 0 1 0-.001-1.612z"></path></g><defs data-v-fde0c5aa=""><!----></defs><g data-v-fde0c5aa="" id="fe50acdf-ec20-4ce3-b718-c3aea2904c71" fill="#040404" transform="matrix(0.4008434168791962,0,0,0.4008434168791962,141.75919908555613,164.7859901690053)"><path d="M0.83 10.82L0.83 10.82L0.83 10.82Q0.83 10.53 1.02 10.53L1.02 10.53L1.02 10.53Q1.20 10.53 1.25 10.67L1.25 10.67L1.25 10.67Q1.39 11.00 1.51 11.25L1.51 11.25L1.51 11.25Q1.62 11.49 1.89 11.85L1.89 11.85L1.89 11.85Q2.16 12.21 2.46 12.44L2.46 12.44L2.46 12.44Q2.77 12.67 3.25 12.84L3.25 12.84L3.25 12.84Q3.74 13.01 4.31 13.01L4.31 13.01L4.31 13.01Q5.36 13.01 6.00 12.45L6.00 12.45L6.00 12.45Q6.64 11.90 6.64 11.00L6.64 11.00L6.64 11.00Q6.64 10.35 6.20 9.90L6.20 9.90L6.20 9.90Q5.77 9.46 5.21 9.27L5.21 9.27L5.21 9.27Q4.65 9.09 3.79 8.77L3.79 8.77L3.79 8.77Q2.93 8.46 2.38 8.13L2.38 8.13L2.38 8.13Q1.11 7.38 1.11 6.08L1.11 6.08L1.11 6.08Q1.11 4.83 2.01 4.08L2.01 4.08L2.01 4.08Q2.91 3.33 4.35 3.33L4.35 3.33L4.35 3.33Q4.89 3.33 5.62 3.56L5.62 3.56L5.62 3.56Q6.36 3.79 6.37 3.79L6.37 3.79L6.37 3.79Q6.41 3.79 6.52 3.74L6.52 3.74L6.52 3.74Q6.64 3.68 6.69 3.68L6.69 3.68L6.69 3.68Q6.87 3.68 6.90 3.79L6.90 3.79L6.90 3.79Q7.20 5.49 7.20 5.70L7.20 5.70L7.20 5.70Q7.20 6.09 7 6.09L7 6.09L7 6.09Q6.87 6.09 6.80 5.89L6.80 5.89L6.80 5.89Q6.64 5.49 6.48 5.24L6.48 5.24L6.48 5.24Q6.31 4.98 6.24 4.91L6.24 4.91L6.24 4.91Q6.17 4.84 5.88 4.58L5.88 4.58L5.88 4.58Q5.12 3.91 4.05 3.91L4.05 3.91L4.05 3.91Q3.18 3.91 2.59 4.33L2.59 4.33L2.59 4.33Q2.00 4.75 2.00 5.46L2.00 5.46L2.00 5.46Q2.00 6.09 2.35 6.50L2.35 6.50L2.35 6.50Q2.69 6.90 3.26 7.13L3.26 7.13L3.26 7.13Q3.84 7.35 4.47 7.55L4.47 7.55L4.47 7.55Q5.10 7.74 5.80 8.09L5.80 8.09L5.80 8.09Q6.51 8.44 6.97 8.93L6.97 8.93L6.97 8.93Q7.53 9.53 7.53 10.43L7.53 10.43L7.53 10.43Q7.53 11.90 6.59 12.76L6.59 12.76L6.59 12.76Q5.66 13.62 4.27 13.62L4.27 13.62L4.27 13.62Q3.30 13.62 2.72 13.52L2.72 13.52L2.72 13.52Q2.13 13.41 1.51 13.09L1.51 13.09L1.51 13.09Q1.33 12.98 1.08 12.00L1.08 12.00L1.08 12.00Q0.83 11.02 0.83 10.82ZM15.22 13.33L15.22 13.33L15.22 13.33Q15.22 13.13 15.43 13.06L15.43 13.06L15.43 13.06Q15.88 12.89 16.21 12.31L16.21 12.31L16.21 12.31Q16.55 11.73 17.88 8.83L17.88 8.83L17.88 8.83Q19.25 5.87 20.30 3.63L20.30 3.63L20.30 3.63Q20.40 3.42 20.47 3.36L20.47 3.36L20.47 3.36Q20.55 3.30 20.72 3.30L20.72 3.30L20.72 3.30Q20.85 3.30 20.89 3.36L20.89 3.36L20.89 3.36Q20.93 3.42 21.07 3.82L21.07 3.82L21.07 3.82Q21.15 4.06 21.22 4.23L21.22 4.23L21.22 4.23Q21.28 4.40 21.42 4.77L21.42 4.77L21.42 4.77Q21.56 5.15 21.73 5.56L21.73 5.56L21.73 5.56Q22.18 6.66 23.27 9.22L23.27 9.22L23.27 9.22Q24.37 11.77 24.47 11.98L24.47 11.98L24.47 11.98Q24.71 12.46 25.00 12.71L25.00 12.71L25.00 12.71Q25.30 12.95 25.52 12.97L25.52 12.97L25.52 12.97Q25.73 12.99 25.88 13.04L25.88 13.04L25.88 13.04Q26.03 13.09 26.03 13.26L26.03 13.26L26.03 13.26Q26.03 13.47 25.65 13.47L25.65 13.47L25.65 13.47Q25.49 13.47 25.05 13.43L25.05 13.43L25.05 13.43Q24.60 13.38 24.39 13.38L24.39 13.38L24.39 13.38Q24.12 13.38 23.70 13.41L23.70 13.41L23.70 13.41Q23.28 13.44 23.09 13.44L23.09 13.44L23.09 13.44Q22.65 13.44 22.53 13.40L22.53 13.40L22.53 13.40Q22.41 13.37 22.41 13.24L22.41 13.24L22.41 13.24Q22.41 13.15 22.53 13.08L22.53 13.08L22.53 13.08Q22.64 13.02 22.76 13.00L22.76 13.00L22.76 13.00Q22.89 12.98 23.00 12.87L23.00 12.87L23.00 12.87Q23.11 12.77 23.11 12.59L23.11 12.59L23.11 12.59Q23.11 12.28 22.76 11.33L22.76 11.33L22.76 11.33Q22.41 10.37 22.18 9.93L22.18 9.93L22.18 9.93Q22.05 9.69 21.60 9.69L21.60 9.69L21.60 9.69Q21.53 9.69 20.99 9.70L20.99 9.70L20.99 9.70Q20.44 9.72 19.91 9.72L19.91 9.72L19.17 9.72L19.17 9.72Q18.54 9.72 18.38 9.79L18.38 9.79L18.38 9.79Q18.21 9.86 18.09 10.12L18.09 10.12L18.09 10.12Q18.00 10.30 17.81 10.70L17.81 10.70L17.81 10.70Q17.61 11.10 17.54 11.26L17.54 11.26L17.54 11.26Q17.47 11.41 17.37 11.65L17.37 11.65L17.37 11.65Q17.26 11.90 17.23 12.05L17.23 12.05L17.23 12.05Q17.19 12.19 17.19 12.31L17.19 12.31L17.19 12.31Q17.19 12.63 17.35 12.80L17.35 12.80L17.35 12.80Q17.51 12.96 17.71 12.98L17.71 12.98L17.71 12.98Q17.91 13.01 18.07 13.06L18.07 13.06L18.07 13.06Q18.23 13.12 18.23 13.26L18.23 13.26L18.23 13.26Q18.23 13.36 18.19 13.40L18.19 13.40L18.19 13.40Q18.14 13.45 17.99 13.45L17.99 13.45L17.99 13.45Q17.91 13.45 17.51 13.45L17.51 13.45L17.51 13.45Q17.11 13.44 16.83 13.44L16.83 13.44L16.83 13.44Q16.52 13.44 16.13 13.47L16.13 13.47L16.13 13.47Q15.75 13.50 15.62 13.50L15.62 13.50L15.62 13.50Q15.22 13.50 15.22 13.33ZM18.73 8.71L18.73 8.71L18.73 8.71Q18.73 8.89 18.86 8.93L18.86 8.93L18.86 8.93Q18.98 8.97 19.45 8.97L19.45 8.97L19.88 8.97L21.21 8.96L21.21 8.96Q21.76 8.96 21.76 8.74L21.76 8.74L21.76 8.74Q21.76 8.55 21.07 7.01L21.07 7.01L21.07 7.01Q20.38 5.46 20.20 5.46L20.20 5.46L20.20 5.46Q20.08 5.46 19.40 7.01L19.40 7.01L19.40 7.01Q18.73 8.55 18.73 8.71ZM33.59 3.68L33.59 3.68L33.59 3.68Q33.59 3.64 33.61 3.60L33.61 3.60L33.61 3.60Q33.63 3.56 33.72 3.50L33.72 3.50L33.72 3.50Q33.81 3.44 33.95 3.44L33.95 3.44L34.33 3.44L34.33 3.44Q34.66 3.44 35.41 3.49L35.41 3.49L35.41 3.49Q36.16 3.53 37.37 3.53L37.37 3.53L37.37 3.53Q38.36 3.53 39.13 3.49L39.13 3.49L39.13 3.49Q39.90 3.46 40.54 3.46L40.54 3.46L40.54 3.46Q40.78 3.46 40.78 3.79L40.78 3.79L40.78 3.79Q40.78 3.92 40.75 4.11L40.75 4.11L40.75 4.11Q40.73 4.30 40.67 4.61L40.67 4.61L40.67 4.61Q40.61 4.93 40.59 5.22L40.59 5.22L40.59 5.22Q40.56 5.50 40.38 5.50L40.38 5.50L40.38 5.50Q40.18 5.50 40.18 5.22L40.18 5.22L40.18 5.22Q40.18 4.30 39.54 4.26L39.54 4.26L39.54 4.26Q37.42 4.09 37.02 4.09L37.02 4.09L37.02 4.09Q36.39 4.09 36.24 4.24L36.24 4.24L36.24 4.24Q36.09 4.40 36.08 4.87L36.08 4.87L36.08 4.87Q36.08 4.94 36.08 4.98L36.08 4.98L36.08 4.98Q36.04 5.74 36.04 7.32L36.04 7.32L36.04 7.32Q36.04 8.01 36.29 8.02L36.29 8.02L36.29 8.02Q36.36 8.02 36.48 8.03L36.48 8.03L36.48 8.03Q36.60 8.04 36.64 8.04L36.64 8.04L36.64 8.04Q36.74 8.04 36.93 8.03L36.93 8.03L36.93 8.03Q37.13 8.02 37.24 8.02L37.24 8.02L37.67 8.02L37.67 8.02Q38.51 8.02 38.79 7.97L38.79 7.97L38.79 7.97Q39.06 7.92 39.28 7.77L39.28 7.77L39.28 7.77Q39.41 7.69 39.48 7.57L39.48 7.57L39.48 7.57Q39.55 7.46 39.58 7.31L39.58 7.31L39.58 7.31Q39.61 7.15 39.65 7.08L39.65 7.08L39.65 7.08Q39.69 7.01 39.82 7.01L39.82 7.01L39.82 7.01Q39.94 7.01 39.97 7.06L39.97 7.06L39.97 7.06Q40.00 7.10 40.00 7.24L40.00 7.24L40.00 7.24Q40.00 7.34 39.93 7.73L39.93 7.73L39.93 7.73Q39.87 8.12 39.87 8.40L39.87 8.40L39.87 8.40Q39.87 8.67 39.92 9.05L39.92 9.05L39.92 9.05Q39.97 9.44 39.97 9.55L39.97 9.55L39.97 9.55Q39.97 9.77 39.92 9.83L39.92 9.83L39.92 9.83Q39.87 9.90 39.77 9.90L39.77 9.90L39.77 9.90Q39.54 9.90 39.48 9.55L39.48 9.55L39.48 9.55Q39.48 9.52 39.47 9.42L39.47 9.42L39.47 9.42Q39.45 9.32 39.45 9.28L39.45 9.28L39.45 9.28Q39.44 9.24 39.41 9.16L39.41 9.16L39.41 9.16Q39.38 9.09 39.35 9.04L39.35 9.04L39.35 9.04Q39.33 9.00 39.28 8.95L39.28 8.95L39.28 8.95Q39.24 8.90 39.17 8.88L39.17 8.88L39.17 8.88Q38.98 8.79 38.47 8.74L38.47 8.74L38.47 8.74Q37.97 8.68 37.81 8.68L37.81 8.68L36.60 8.68L36.60 8.68Q36.02 8.68 36.02 8.95L36.02 8.95L36.02 8.95Q36.02 9.35 36.01 9.96L36.01 9.96L36.01 9.96Q35.99 10.57 35.99 10.96L35.99 10.96L35.99 10.96Q35.99 11.06 35.99 11.25L35.99 11.25L35.99 11.25Q35.98 11.44 35.98 11.52L35.98 11.52L35.98 11.52Q35.98 11.80 36.04 12.08L36.04 12.08L36.04 12.08Q36.09 12.36 36.36 12.67L36.36 12.67L36.36 12.67Q36.64 12.98 37.10 12.98L37.10 12.98L37.10 12.98Q37.52 12.98 37.52 13.23L37.52 13.23L37.52 13.23Q37.52 13.27 37.49 13.33L37.49 13.33L37.49 13.33Q37.46 13.38 37.36 13.44L37.36 13.44L37.36 13.44Q37.25 13.50 37.09 13.50L37.09 13.50L37.09 13.50Q36.86 13.50 36.38 13.44L36.38 13.44L36.38 13.44Q35.90 13.38 35.73 13.38L35.73 13.38L35.73 13.38Q35.34 13.38 34.85 13.43L34.85 13.43L34.85 13.43Q34.37 13.47 34.03 13.47L34.03 13.47L34.03 13.47Q33.75 13.47 33.75 13.31L33.75 13.31L33.75 13.31Q33.75 13.13 33.82 13.09L33.82 13.09L33.82 13.09Q33.88 13.05 34.36 12.88L34.36 12.88L34.36 12.88Q34.72 12.75 34.80 12.13L34.80 12.13L34.80 12.13Q34.89 11.51 34.90 9.60L34.90 9.60L34.90 9.60Q34.90 8.86 34.90 8.44L34.90 8.44L34.90 8.44Q34.90 8.06 34.92 7.26L34.92 7.26L34.92 7.26Q34.94 6.45 34.94 6.01L34.94 6.01L34.94 5.19L34.94 5.19Q34.94 4.27 34.29 3.96L34.29 3.96L34.29 3.96Q34.19 3.92 34.05 3.90L34.05 3.90L34.05 3.90Q33.91 3.88 33.82 3.88L33.82 3.88L33.82 3.88Q33.73 3.88 33.66 3.83L33.66 3.83L33.66 3.83Q33.59 3.78 33.59 3.68ZM48.34 3.65L48.34 3.65L48.34 3.65Q48.34 3.46 48.73 3.46L48.73 3.46L48.73 3.46Q48.79 3.46 48.92 3.47L48.92 3.47L48.92 3.47Q49.04 3.49 49.11 3.49L49.11 3.49L49.11 3.49Q49.15 3.49 50.43 3.52L50.43 3.52L50.43 3.52Q51.70 3.56 52.53 3.56L52.53 3.56L52.53 3.56Q52.82 3.56 53.98 3.53L53.98 3.53L53.98 3.53Q55.13 3.50 55.33 3.50L55.33 3.50L55.33 3.50Q55.59 3.50 55.59 3.82L55.59 3.82L55.59 3.82Q55.59 3.91 55.51 4.38L55.51 4.38L55.51 4.38Q55.43 4.84 55.43 5.25L55.43 5.25L55.43 5.25Q55.43 5.38 55.36 5.47L55.36 5.47L55.36 5.47Q55.29 5.56 55.20 5.56L55.20 5.56L55.20 5.56Q54.99 5.56 54.99 5.26L54.99 5.26L54.99 5.26Q54.99 4.89 54.75 4.58L54.75 4.58L54.75 4.58Q54.52 4.27 54.17 4.26L54.17 4.26L54.17 4.26Q52.91 4.16 52.23 4.16L52.23 4.16L51.87 4.16L51.87 4.16Q51.14 4.16 51.02 4.26L51.02 4.26L51.02 4.26Q50.90 4.37 50.88 5.01L50.88 5.01L50.88 5.01Q50.82 6.02 50.82 7.35L50.82 7.35L50.82 7.35Q50.82 8.05 51.09 8.06L51.09 8.06L51.44 8.06L52.02 8.06L52.46 8.06L52.46 8.06Q53.30 8.06 53.58 8.01L53.58 8.01L53.58 8.01Q53.86 7.95 54.08 7.80L54.08 7.80L54.08 7.80Q54.35 7.62 54.40 7.28L54.40 7.28L54.40 7.28Q54.45 7.04 54.60 7.04L54.60 7.04L54.60 7.04Q54.73 7.04 54.75 7.08L54.75 7.08L54.75 7.08Q54.78 7.13 54.78 7.27L54.78 7.27L54.78 7.27Q54.78 7.36 54.73 7.91L54.73 7.91L54.73 7.91Q54.67 8.46 54.67 8.74L54.67 8.74L54.67 8.74Q54.67 9.00 54.69 9.24L54.69 9.24L54.69 9.24Q54.71 9.48 54.71 9.59L54.71 9.59L54.71 9.59Q54.71 9.94 54.61 9.94L54.61 9.94L54.61 9.94Q54.40 9.94 54.31 9.60L54.31 9.60L54.31 9.60Q54.11 9.02 53.96 8.92L53.96 8.92L53.96 8.92Q53.66 8.72 52.61 8.72L52.61 8.72L52.61 8.72Q52.19 8.72 51.93 8.72L51.93 8.72L51.93 8.72Q51.67 8.72 51.60 8.71L51.60 8.71L51.60 8.71Q51.52 8.71 51.47 8.71L51.47 8.71L51.47 8.71Q51.42 8.71 51.38 8.71L51.38 8.71L51.38 8.71Q50.81 8.71 50.81 8.97L50.81 8.97L50.81 8.97Q50.81 9.38 50.79 9.99L50.79 9.99L50.79 9.99Q50.78 10.60 50.78 10.99L50.78 10.99L50.78 11.55L50.78 11.55Q50.78 12.56 51.11 12.66L51.11 12.66L51.11 12.66Q51.46 12.77 51.72 12.77L51.72 12.77L51.72 12.77Q52.77 12.77 53.56 12.67L53.56 12.67L53.56 12.67Q54.35 12.57 54.75 12.42L54.75 12.42L54.75 12.42Q55.15 12.28 55.41 12.10L55.41 12.10L55.41 12.10Q55.68 11.93 55.75 11.78L55.75 11.78L55.75 11.78Q55.83 11.63 55.91 11.54L55.91 11.54L55.91 11.54Q55.99 11.44 56.07 11.44L56.07 11.44L56.07 11.44Q56.24 11.44 56.24 11.68L56.24 11.68L56.24 11.68Q56.24 12.28 55.64 12.89L55.64 12.89L55.64 12.89Q55.03 13.51 54.59 13.51L54.59 13.51L54.59 13.51Q53.58 13.51 52.31 13.44L52.31 13.44L52.31 13.44Q51.04 13.37 50.74 13.37L50.74 13.37L50.74 13.37Q50.34 13.37 49.76 13.43L49.76 13.43L49.76 13.43Q49.17 13.50 48.83 13.50L48.83 13.50L48.83 13.50Q48.54 13.50 48.54 13.36L48.54 13.36L48.54 13.36Q48.54 13.23 48.54 13.19L48.54 13.19L48.54 13.19Q48.54 13.15 48.58 13.12L48.58 13.12L48.58 13.12Q48.62 13.09 48.67 13.08L48.67 13.08L48.67 13.08Q48.72 13.08 48.85 13.03L48.85 13.03L48.85 13.03Q48.99 12.99 49.14 12.92L49.14 12.92L49.14 12.92Q49.48 12.75 49.58 12.26L49.58 12.26L49.58 12.26Q49.69 11.77 49.69 10.21L49.69 10.21L49.69 8.47L49.69 8.47Q49.69 8.09 49.71 7.29L49.71 7.29L49.71 7.29Q49.73 6.50 49.73 6.05L49.73 6.05L49.73 6.05Q49.73 5.67 49.70 4.77L49.70 4.77L49.70 4.77Q49.69 4.37 49.35 4.14L49.35 4.14L49.35 4.14Q49.01 3.92 48.57 3.91L48.57 3.91L48.57 3.91Q48.34 3.91 48.34 3.65ZM64.71 13.15L64.71 13.15Q64.27 12.84 64.27 12.67L64.27 12.67L64.27 12.67Q64.27 12.50 64.71 12.12L64.71 12.12L64.71 12.12Q64.76 12.07 64.87 11.93L64.87 11.93L64.87 11.93Q64.97 11.79 65.08 11.71L65.08 11.71L65.08 11.71Q65.18 11.63 65.30 11.63L65.30 11.63L65.30 11.63Q65.41 11.63 65.87 12.18L65.87 12.18L65.87 12.18Q65.91 12.22 66.03 12.33L66.03 12.33L66.03 12.33Q66.15 12.43 66.22 12.52L66.22 12.52L66.22 12.52Q66.29 12.61 66.29 12.67L66.29 12.67L66.29 12.67Q66.29 12.74 66.22 12.82L66.22 12.82L66.22 12.82Q66.15 12.89 66.01 13.01L66.01 13.01L66.01 13.01Q65.87 13.12 65.80 13.17L65.80 13.17L65.80 13.17Q65.74 13.23 65.64 13.37L65.64 13.37L65.64 13.37Q65.53 13.51 65.44 13.59L65.44 13.59L65.44 13.59Q65.35 13.66 65.27 13.66L65.27 13.66L65.27 13.66Q65.14 13.66 64.95 13.42L64.95 13.42L64.95 13.42Q64.75 13.17 64.71 13.15L64.71 13.15ZM84.31 3.70L84.31 3.70L84.31 3.70Q84.31 3.47 84.71 3.47L84.71 3.47L87.04 3.47L87.04 3.47Q87.36 3.47 87.78 3.45L87.78 3.45L87.78 3.45Q88.20 3.43 88.44 3.43L88.44 3.43L88.44 3.43Q89.70 3.43 90.59 4.07L90.59 4.07L90.59 4.07Q91.49 4.70 91.49 5.78L91.49 5.78L91.49 5.78Q91.49 6.50 91.22 7.03L91.22 7.03L91.22 7.03Q90.94 7.57 90.62 7.81L90.62 7.81L90.62 7.81Q90.29 8.05 90.01 8.22L90.01 8.22L90.01 8.22Q89.74 8.40 89.74 8.46L89.74 8.46L89.74 8.46Q89.74 8.62 90.92 10.27L90.92 10.27L90.92 10.27Q92.09 11.91 92.53 12.38L92.53 12.38L92.53 12.38Q93.06 13.03 93.81 13.03L93.81 13.03L93.81 13.03Q94.01 13.03 94.01 13.20L94.01 13.20L94.01 13.20Q94.01 13.41 93.84 13.48L93.84 13.48L93.84 13.48Q93.67 13.55 92.97 13.55L92.97 13.55L92.97 13.55Q92.32 13.55 91.77 13.23L91.77 13.23L91.77 13.23Q91.07 12.82 89.40 10.09L89.40 10.09L89.40 10.09Q89.31 9.94 89.26 9.87L89.26 9.87L89.26 9.87Q88.59 8.78 88.23 8.78L88.23 8.78L87.93 8.78L87.08 8.78L87.08 8.78Q86.91 8.78 86.88 8.92L86.88 8.92L86.88 8.92Q86.84 9.06 86.84 9.77L86.84 9.77L86.84 9.77Q86.84 10.44 86.84 10.88L86.84 10.88L86.84 10.88Q86.84 11.31 86.85 11.43L86.85 11.43L86.85 11.43Q86.86 11.55 86.86 11.63L86.86 11.63L86.86 11.63Q86.86 11.70 86.86 11.75L86.86 11.75L86.86 11.75Q86.86 12.32 87.12 12.63L87.12 12.63L87.12 12.63Q87.39 12.95 87.72 13.00L87.72 13.00L87.72 13.00Q88.05 13.05 88.31 13.11L88.31 13.11L88.31 13.11Q88.58 13.17 88.58 13.31L88.58 13.31L88.58 13.31Q88.58 13.54 88.33 13.54L88.33 13.54L88.33 13.54Q88.31 13.54 87.36 13.49L87.36 13.49L87.36 13.49Q86.41 13.44 86.32 13.44L86.32 13.44L86.32 13.44Q85.92 13.44 85.36 13.47L85.36 13.47L85.36 13.47Q84.80 13.50 84.78 13.50L84.78 13.50L84.78 13.50Q84.49 13.50 84.49 13.27L84.49 13.27L84.49 13.27Q84.49 13.12 84.67 13.05L84.67 13.05L84.67 13.05Q84.85 12.99 85.08 12.96L85.08 12.96L85.08 12.96Q85.30 12.94 85.48 12.66L85.48 12.66L85.48 12.66Q85.67 12.38 85.67 11.86L85.67 11.86L85.67 11.86Q85.67 11.49 85.67 9.90L85.67 9.90L85.67 9.90Q85.68 8.30 85.68 7.45L85.68 7.45L85.68 7.45Q85.68 6.58 85.67 5.86L85.67 5.86L85.67 5.86Q85.67 5.14 85.67 5.08L85.67 5.08L85.67 5.08Q85.67 4.56 85.46 4.29L85.46 4.29L85.46 4.29Q85.25 4.02 84.99 3.98L84.99 3.98L84.99 3.98Q84.73 3.95 84.52 3.89L84.52 3.89L84.52 3.89Q84.31 3.84 84.31 3.70ZM86.84 5.54L86.84 5.94L86.84 5.94Q86.84 7.38 86.86 7.72L86.86 7.72L86.86 7.72Q86.87 8.06 86.95 8.12L86.95 8.12L86.95 8.12Q87.16 8.25 87.56 8.25L87.56 8.25L87.70 8.25L88.10 8.25L88.10 8.25Q89.29 8.25 89.80 7.70L89.80 7.70L89.80 7.70Q90.31 7.15 90.31 6.30L90.31 6.30L90.31 6.30Q90.31 5.43 89.64 4.72L89.64 4.72L89.64 4.72Q88.96 4.00 87.58 4.00L87.58 4.00L87.58 4.00Q87.07 4.00 86.95 4.28L86.95 4.28L86.95 4.28Q86.84 4.55 86.84 5.54L86.84 5.54ZM101.36 3.65L101.36 3.65L101.36 3.65Q101.36 3.46 101.75 3.46L101.75 3.46L101.75 3.46Q101.81 3.46 101.93 3.47L101.93 3.47L101.93 3.47Q102.06 3.49 102.13 3.49L102.13 3.49L102.13 3.49Q102.17 3.49 103.45 3.52L103.45 3.52L103.45 3.52Q104.72 3.56 105.55 3.56L105.55 3.56L105.55 3.56Q105.84 3.56 107.00 3.53L107.00 3.53L107.00 3.53Q108.15 3.50 108.35 3.50L108.35 3.50L108.35 3.50Q108.61 3.50 108.61 3.82L108.61 3.82L108.61 3.82Q108.61 3.91 108.53 4.38L108.53 4.38L108.53 4.38Q108.44 4.84 108.44 5.25L108.44 5.25L108.44 5.25Q108.44 5.38 108.37 5.47L108.37 5.47L108.37 5.47Q108.30 5.56 108.22 5.56L108.22 5.56L108.22 5.56Q108.01 5.56 108.01 5.26L108.01 5.26L108.01 5.26Q108.01 4.89 107.77 4.58L107.77 4.58L107.77 4.58Q107.53 4.27 107.18 4.26L107.18 4.26L107.18 4.26Q105.92 4.16 105.25 4.16L105.25 4.16L104.89 4.16L104.89 4.16Q104.16 4.16 104.04 4.26L104.04 4.26L104.04 4.26Q103.92 4.37 103.89 5.01L103.89 5.01L103.89 5.01Q103.84 6.02 103.84 7.35L103.84 7.35L103.84 7.35Q103.84 8.05 104.10 8.06L104.10 8.06L104.45 8.06L105.04 8.06L105.48 8.06L105.48 8.06Q106.32 8.06 106.60 8.01L106.60 8.01L106.60 8.01Q106.88 7.95 107.10 7.80L107.10 7.80L107.10 7.80Q107.37 7.62 107.42 7.28L107.42 7.28L107.42 7.28Q107.46 7.04 107.62 7.04L107.62 7.04L107.62 7.04Q107.74 7.04 107.77 7.08L107.77 7.08L107.77 7.08Q107.80 7.13 107.80 7.27L107.80 7.27L107.80 7.27Q107.80 7.36 107.74 7.91L107.74 7.91L107.74 7.91Q107.69 8.46 107.69 8.74L107.69 8.74L107.69 8.74Q107.69 9.00 107.71 9.24L107.71 9.24L107.71 9.24Q107.73 9.48 107.73 9.59L107.73 9.59L107.73 9.59Q107.73 9.94 107.63 9.94L107.63 9.94L107.63 9.94Q107.42 9.94 107.32 9.60L107.32 9.60L107.32 9.60Q107.13 9.02 106.97 8.92L106.97 8.92L106.97 8.92Q106.68 8.72 105.63 8.72L105.63 8.72L105.63 8.72Q105.21 8.72 104.95 8.72L104.95 8.72L104.95 8.72Q104.69 8.72 104.62 8.71L104.62 8.71L104.62 8.71Q104.54 8.71 104.49 8.71L104.49 8.71L104.49 8.71Q104.44 8.71 104.40 8.71L104.40 8.71L104.40 8.71Q103.82 8.71 103.82 8.97L103.82 8.97L103.82 8.97Q103.82 9.38 103.81 9.99L103.81 9.99L103.81 9.99Q103.80 10.60 103.80 10.99L103.80 10.99L103.80 11.55L103.80 11.55Q103.80 12.56 104.13 12.66L104.13 12.66L104.13 12.66Q104.48 12.77 104.73 12.77L104.73 12.77L104.73 12.77Q105.78 12.77 106.58 12.67L106.58 12.67L106.58 12.67Q107.37 12.57 107.77 12.42L107.77 12.42L107.77 12.42Q108.16 12.28 108.43 12.10L108.43 12.10L108.43 12.10Q108.70 11.93 108.77 11.78L108.77 11.78L108.77 11.78Q108.85 11.63 108.93 11.54L108.93 11.54L108.93 11.54Q109.00 11.44 109.09 11.44L109.09 11.44L109.09 11.44Q109.26 11.44 109.26 11.68L109.26 11.68L109.26 11.68Q109.26 12.28 108.65 12.89L108.65 12.89L108.65 12.89Q108.05 13.51 107.60 13.51L107.60 13.51L107.60 13.51Q106.60 13.51 105.33 13.44L105.33 13.44L105.33 13.44Q104.06 13.37 103.75 13.37L103.75 13.37L103.75 13.37Q103.36 13.37 102.77 13.43L102.77 13.43L102.77 13.43Q102.19 13.50 101.85 13.50L101.85 13.50L101.85 13.50Q101.56 13.50 101.56 13.36L101.56 13.36L101.56 13.36Q101.56 13.23 101.56 13.19L101.56 13.19L101.56 13.19Q101.56 13.15 101.60 13.12L101.60 13.12L101.60 13.12Q101.64 13.09 101.69 13.08L101.69 13.08L101.69 13.08Q101.74 13.08 101.87 13.03L101.87 13.03L101.87 13.03Q102.00 12.99 102.16 12.92L102.16 12.92L102.16 12.92Q102.49 12.75 102.60 12.26L102.60 12.26L102.60 12.26Q102.70 11.77 102.70 10.21L102.70 10.21L102.70 8.47L102.70 8.47Q102.70 8.09 102.73 7.29L102.73 7.29L102.73 7.29Q102.75 6.50 102.75 6.05L102.75 6.05L102.75 6.05Q102.75 5.67 102.72 4.77L102.72 4.77L102.72 4.77Q102.70 4.37 102.37 4.14L102.37 4.14L102.37 4.14Q102.03 3.92 101.58 3.91L101.58 3.91L101.58 3.91Q101.36 3.91 101.36 3.65ZM116.82 3.71L116.82 3.71L116.82 3.71Q116.82 3.46 117.19 3.46L117.19 3.46L117.19 3.46Q117.25 3.46 117.38 3.47L117.38 3.47L117.38 3.47Q117.50 3.49 117.57 3.49L117.57 3.49L117.57 3.49Q117.71 3.49 118.10 3.51L118.10 3.51L118.10 3.51Q118.48 3.54 118.79 3.54L118.79 3.54L118.79 3.54Q119.22 3.54 119.71 3.51L119.71 3.51L119.71 3.51Q120.20 3.49 120.26 3.49L120.26 3.49L120.26 3.49Q120.50 3.49 120.50 3.63L120.50 3.63L120.50 3.63Q120.50 3.82 120.33 3.88L120.33 3.88L120.33 3.88Q120.16 3.95 119.96 3.97L119.96 3.97L119.96 3.97Q119.76 3.99 119.57 4.28L119.57 4.28L119.57 4.28Q119.38 4.56 119.35 5.14L119.35 5.14L119.35 5.14Q119.32 5.68 119.28 8.19L119.28 8.19L119.28 8.19Q119.24 10.70 119.24 10.99L119.24 10.99L119.24 11.55L119.24 11.55Q119.24 12.56 119.57 12.66L119.57 12.66L119.57 12.66Q119.92 12.77 120.18 12.77L120.18 12.77L120.18 12.77Q121.23 12.77 122.02 12.67L122.02 12.67L122.02 12.67Q122.81 12.57 123.21 12.42L123.21 12.42L123.21 12.42Q123.61 12.28 123.87 12.10L123.87 12.10L123.87 12.10Q124.14 11.93 124.22 11.78L124.22 11.78L124.22 11.78Q124.29 11.63 124.37 11.54L124.37 11.54L124.37 11.54Q124.45 11.44 124.53 11.44L124.53 11.44L124.53 11.44Q124.70 11.44 124.70 11.68L124.70 11.68L124.70 11.68Q124.70 12.28 124.10 12.89L124.10 12.89L124.10 12.89Q123.49 13.51 123.05 13.51L123.05 13.51L123.05 13.51Q122.04 13.51 120.77 13.44L120.77 13.44L120.77 13.44Q119.50 13.37 119.20 13.37L119.20 13.37L119.20 13.37Q118.80 13.37 118.29 13.43L118.29 13.43L118.29 13.43Q117.78 13.48 117.45 13.48L117.45 13.48L117.45 13.48Q117.04 13.48 117.04 13.31L117.04 13.31L117.04 13.31Q117.04 13.22 117.12 13.15L117.12 13.15L117.12 13.15Q117.19 13.09 117.26 13.09L117.26 13.09L117.26 13.09Q117.47 13.09 117.67 12.95L117.67 12.95L117.67 12.95Q117.92 12.75 118.03 12.23L118.03 12.23L118.03 12.23Q118.15 11.70 118.15 10.21L118.15 10.21L118.15 8.47L118.15 8.47Q118.15 8.09 118.17 7.29L118.17 7.29L118.17 7.29Q118.19 6.50 118.19 6.05L118.19 6.05L118.19 6.05Q118.19 5.67 118.16 4.77L118.16 4.77L118.16 4.77Q118.15 4.37 117.81 4.14L117.81 4.14L117.81 4.14Q117.47 3.92 117.03 3.91L117.03 3.91L117.03 3.91Q116.89 3.91 116.85 3.86L116.85 3.86L116.85 3.86Q116.82 3.81 116.82 3.71ZM132.26 3.71L132.26 3.71L132.26 3.71Q132.26 3.50 132.65 3.50L132.65 3.50L132.65 3.50Q132.79 3.50 133.29 3.53L133.29 3.53L133.29 3.53Q133.80 3.56 134.23 3.56L134.23 3.56L134.23 3.56Q134.50 3.56 134.74 3.54L134.74 3.54L134.74 3.54Q134.99 3.53 135.46 3.53L135.46 3.53L135.46 3.53Q135.84 3.53 135.84 3.72L135.84 3.72L135.84 3.72Q135.84 3.84 135.20 4.10L135.20 4.10L135.20 4.10Q134.75 4.28 134.75 5.71L134.75 5.71L134.75 5.71Q134.75 7.60 134.73 9.05L134.73 9.05L134.73 9.05Q134.71 10.50 134.71 10.89L134.71 10.89L134.71 10.89Q134.71 12.07 135.06 12.59L135.06 12.59L135.06 12.59Q135.37 13.02 135.73 13.02L135.73 13.02L135.73 13.02Q135.76 13.02 135.87 13.03L135.87 13.03L135.87 13.03Q135.98 13.03 136.01 13.03L136.01 13.03L136.01 13.03Q136.11 13.03 136.21 13.08L136.21 13.08L136.21 13.08Q136.30 13.13 136.30 13.19L136.30 13.19L136.30 13.19Q136.30 13.34 136.23 13.39L136.23 13.39L136.23 13.39Q136.15 13.44 135.95 13.44L135.95 13.44L135.95 13.44Q135.53 13.44 135.18 13.41L135.18 13.41L135.18 13.41Q134.82 13.38 134.62 13.38L134.62 13.38L134.62 13.38Q134.23 13.38 133.77 13.42L133.77 13.42L133.77 13.42Q133.31 13.45 133.08 13.45L133.08 13.45L133.08 13.45Q132.45 13.45 132.45 13.24L132.45 13.24L132.45 13.24Q132.45 13.12 132.59 13.07L132.59 13.07L132.59 13.07Q132.72 13.02 132.89 13.00L132.89 13.00L132.89 13.00Q133.06 12.98 133.24 12.82L133.24 12.82L133.24 12.82Q133.42 12.66 133.49 12.35L133.49 12.35L133.49 12.35Q133.52 12.25 133.58 10.76L133.58 10.76L133.58 10.76Q133.64 9.27 133.64 8.61L133.64 8.61L133.64 7.81L133.64 7.81Q133.64 7.63 133.65 7.12L133.65 7.12L133.65 7.12Q133.66 6.61 133.66 6.30L133.66 6.30L133.66 5.66L133.66 5.66Q133.66 5.04 133.60 4.63L133.60 4.63L133.60 4.63Q133.56 4.30 133.23 4.12L133.23 4.12L133.23 4.12Q132.90 3.93 132.55 3.92L132.55 3.92L132.55 3.92Q132.26 3.91 132.26 3.71ZM143.85 13.33L143.85 13.33L143.85 13.33Q143.85 13.13 144.06 13.06L144.06 13.06L144.06 13.06Q144.51 12.89 144.84 12.31L144.84 12.31L144.84 12.31Q145.18 11.73 146.51 8.83L146.51 8.83L146.51 8.83Q147.88 5.87 148.93 3.63L148.93 3.63L148.93 3.63Q149.03 3.42 149.11 3.36L149.11 3.36L149.11 3.36Q149.18 3.30 149.35 3.30L149.35 3.30L149.35 3.30Q149.48 3.30 149.52 3.36L149.52 3.36L149.52 3.36Q149.56 3.42 149.70 3.82L149.70 3.82L149.70 3.82Q149.79 4.06 149.85 4.23L149.85 4.23L149.85 4.23Q149.91 4.40 150.05 4.77L150.05 4.77L150.05 4.77Q150.19 5.15 150.36 5.56L150.36 5.56L150.36 5.56Q150.81 6.66 151.91 9.22L151.91 9.22L151.91 9.22Q153.01 11.77 153.10 11.98L153.10 11.98L153.10 11.98Q153.34 12.46 153.64 12.71L153.64 12.71L153.64 12.71Q153.93 12.95 154.15 12.97L154.15 12.97L154.15 12.97Q154.36 12.99 154.51 13.04L154.51 13.04L154.51 13.04Q154.66 13.09 154.66 13.26L154.66 13.26L154.66 13.26Q154.66 13.47 154.28 13.47L154.28 13.47L154.28 13.47Q154.13 13.47 153.68 13.43L153.68 13.43L153.68 13.43Q153.23 13.38 153.02 13.38L153.02 13.38L153.02 13.38Q152.75 13.38 152.33 13.41L152.33 13.41L152.33 13.41Q151.91 13.44 151.72 13.44L151.72 13.44L151.72 13.44Q151.28 13.44 151.17 13.40L151.17 13.40L151.17 13.40Q151.05 13.37 151.05 13.24L151.05 13.24L151.05 13.24Q151.05 13.15 151.16 13.08L151.16 13.08L151.16 13.08Q151.27 13.02 151.40 13.00L151.40 13.00L151.40 13.00Q151.52 12.98 151.63 12.87L151.63 12.87L151.63 12.87Q151.75 12.77 151.75 12.59L151.75 12.59L151.75 12.59Q151.75 12.28 151.40 11.33L151.40 11.33L151.40 11.33Q151.05 10.37 150.81 9.93L150.81 9.93L150.81 9.93Q150.68 9.69 150.23 9.69L150.23 9.69L150.23 9.69Q150.16 9.69 149.62 9.70L149.62 9.70L149.62 9.70Q149.07 9.72 148.54 9.72L148.54 9.72L147.80 9.72L147.80 9.72Q147.17 9.72 147.01 9.79L147.01 9.79L147.01 9.79Q146.85 9.86 146.72 10.12L146.72 10.12L146.72 10.12Q146.64 10.30 146.44 10.70L146.44 10.70L146.44 10.70Q146.24 11.10 146.17 11.26L146.17 11.26L146.17 11.26Q146.10 11.41 146.00 11.65L146.00 11.65L146.00 11.65Q145.89 11.90 145.86 12.05L145.86 12.05L145.86 12.05Q145.82 12.19 145.82 12.31L145.82 12.31L145.82 12.31Q145.82 12.63 145.99 12.80L145.99 12.80L145.99 12.80Q146.15 12.96 146.34 12.98L146.34 12.98L146.34 12.98Q146.54 13.01 146.70 13.06L146.70 13.06L146.70 13.06Q146.86 13.12 146.86 13.26L146.86 13.26L146.86 13.26Q146.86 13.36 146.82 13.40L146.82 13.40L146.82 13.40Q146.78 13.45 146.62 13.45L146.62 13.45L146.62 13.45Q146.54 13.45 146.14 13.45L146.14 13.45L146.14 13.45Q145.74 13.44 145.46 13.44L145.46 13.44L145.46 13.44Q145.15 13.44 144.77 13.47L144.77 13.47L144.77 13.47Q144.38 13.50 144.26 13.50L144.26 13.50L144.26 13.50Q143.85 13.50 143.85 13.33ZM147.36 8.71L147.36 8.71L147.36 8.71Q147.36 8.89 147.49 8.93L147.49 8.93L147.49 8.93Q147.62 8.97 148.08 8.97L148.08 8.97L148.51 8.97L149.84 8.96L149.84 8.96Q150.39 8.96 150.39 8.74L150.39 8.74L150.39 8.74Q150.39 8.55 149.70 7.01L149.70 7.01L149.70 7.01Q149.02 5.46 148.83 5.46L148.83 5.46L148.83 5.46Q148.71 5.46 148.04 7.01L148.04 7.01L148.04 7.01Q147.36 8.55 147.36 8.71ZM162.22 3.72L162.22 3.72L162.22 3.72Q162.22 3.51 162.34 3.51L162.34 3.51L162.34 3.51Q162.39 3.51 162.53 3.52L162.53 3.52L162.53 3.52Q162.67 3.53 162.90 3.53L162.90 3.53L162.90 3.53Q163.18 3.53 164.02 3.52L164.02 3.52L164.02 3.52Q164.85 3.51 164.95 3.51L164.95 3.51L164.95 3.51Q165.27 3.51 165.76 3.49L165.76 3.49L165.76 3.49Q166.25 3.47 166.49 3.47L166.49 3.47L166.49 3.47Q167.76 3.47 168.62 4.08L168.62 4.08L168.62 4.08Q169.47 4.69 169.47 5.81L169.47 5.81L169.47 5.81Q169.47 6.22 169.32 6.57L169.32 6.57L169.32 6.57Q169.18 6.93 168.97 7.15L168.97 7.15L168.97 7.15Q168.77 7.38 168.57 7.54L168.57 7.54L168.57 7.54Q168.36 7.70 168.22 7.79L168.22 7.79L168.22 7.79Q168.07 7.88 168.07 7.90L168.07 7.90L168.07 7.90Q168.07 7.94 168.31 8.00L168.31 8.00L168.31 8.00Q168.55 8.06 168.88 8.21L168.88 8.21L168.88 8.21Q169.22 8.36 169.55 8.61L169.55 8.61L169.55 8.61Q169.88 8.86 170.11 9.36L170.11 9.36L170.11 9.36Q170.35 9.86 170.35 10.53L170.35 10.53L170.35 10.53Q170.35 11.13 170.00 11.82L170.00 11.82L170.00 11.82Q169.65 12.50 169.18 12.82L169.18 12.82L169.18 12.82Q168.56 13.26 168.03 13.40L168.03 13.40L168.03 13.40Q167.50 13.55 166.74 13.55L166.74 13.55L166.74 13.55Q166.18 13.55 165.26 13.47L165.26 13.47L165.26 13.47Q164.33 13.40 164.23 13.40L164.23 13.40L164.23 13.40Q164.08 13.40 163.68 13.43L163.68 13.43L163.68 13.43Q163.28 13.45 163.03 13.45L163.03 13.45L162.83 13.45L162.83 13.45Q162.54 13.45 162.54 13.24L162.54 13.24L162.54 13.24Q162.54 13.05 162.69 13.05L162.69 13.05L162.69 13.05Q162.78 13.05 162.88 13.04L162.88 13.04L162.88 13.04Q162.97 13.03 163.02 13.03L163.02 13.03L163.02 13.03Q163.14 13.03 163.26 12.94L163.26 12.94L163.26 12.94Q163.38 12.85 163.51 12.54L163.51 12.54L163.51 12.54Q163.63 12.22 163.65 11.73L163.65 11.73L163.65 11.73Q163.69 10.82 163.69 7.36L163.69 7.36L163.69 4.98L163.69 4.98Q163.69 4.89 163.65 4.75L163.65 4.75L163.65 4.75Q163.62 4.62 163.51 4.40L163.51 4.40L163.51 4.40Q163.41 4.19 163.14 4.04L163.14 4.04L163.14 4.04Q162.86 3.89 162.46 3.89L162.46 3.89L162.46 3.89Q162.22 3.89 162.22 3.72ZM164.75 12.15L164.75 12.15L164.75 12.15Q164.75 12.99 166.12 12.99L166.12 12.99L166.45 12.99L166.45 12.99Q167.20 12.99 167.65 12.92L167.65 12.92L167.65 12.92Q168.31 12.81 168.74 12.24L168.74 12.24L168.74 12.24Q169.16 11.66 169.16 10.86L169.16 10.86L169.16 10.86Q169.16 10.18 168.91 9.68L168.91 9.68L168.91 9.68Q168.66 9.18 168.34 8.93L168.34 8.93L168.34 8.93Q168.01 8.68 167.57 8.54L167.57 8.54L167.57 8.54Q167.13 8.40 166.89 8.37L166.89 8.37L166.89 8.37Q166.64 8.34 166.42 8.34L166.42 8.34L166.42 8.34Q165.97 8.34 165.68 8.34L165.68 8.34L165.68 8.34Q165.40 8.33 165.32 8.33L165.32 8.33L165.32 8.33Q165.24 8.33 165.19 8.32L165.19 8.32L165.19 8.32Q165.14 8.32 165.12 8.32L165.12 8.32L165.12 8.32Q164.99 8.32 164.93 8.35L164.93 8.35L164.93 8.35Q164.88 8.39 164.83 8.62L164.83 8.62L164.83 8.62Q164.78 8.85 164.77 9.28L164.77 9.28L164.77 9.28Q164.77 9.72 164.77 10.58L164.77 10.58L164.77 10.70L164.77 10.70Q164.77 11.21 164.77 11.54L164.77 11.54L164.77 11.54Q164.77 11.86 164.76 11.99L164.76 11.99L164.76 11.99Q164.75 12.12 164.75 12.15ZM164.84 5.40L164.84 5.81L164.84 5.81Q164.84 6.51 164.84 6.90L164.84 6.90L164.84 6.90Q164.85 7.29 164.88 7.50L164.88 7.50L164.88 7.50Q164.91 7.71 164.93 7.77L164.93 7.77L164.93 7.77Q164.96 7.83 165.02 7.83L165.02 7.83L165.02 7.83Q165.41 7.87 165.73 7.87L165.73 7.87L166.63 7.87L166.63 7.87Q167.51 7.87 167.95 7.41L167.95 7.41L167.95 7.41Q168.39 6.94 168.39 6.22L168.39 6.22L168.39 6.22Q168.39 5.43 167.66 4.70L167.66 4.70L167.66 4.70Q166.92 3.96 165.56 3.96L165.56 3.96L165.56 3.96Q165.13 3.96 164.98 4.22L164.98 4.22L164.98 4.22Q164.84 4.48 164.84 5.40L164.84 5.40ZM178.04 3.71L178.04 3.71L178.04 3.71Q178.04 3.46 178.42 3.46L178.42 3.46L178.42 3.46Q178.47 3.46 178.60 3.47L178.60 3.47L178.60 3.47Q178.72 3.49 178.79 3.49L178.79 3.49L178.79 3.49Q178.93 3.49 179.32 3.51L179.32 3.51L179.32 3.51Q179.70 3.54 180.01 3.54L180.01 3.54L180.01 3.54Q180.45 3.54 180.94 3.51L180.94 3.51L180.94 3.51Q181.43 3.49 181.48 3.49L181.48 3.49L181.48 3.49Q181.72 3.49 181.72 3.63L181.72 3.63L181.72 3.63Q181.72 3.82 181.55 3.88L181.55 3.88L181.55 3.88Q181.38 3.95 181.18 3.97L181.18 3.97L181.18 3.97Q180.98 3.99 180.79 4.28L180.79 4.28L180.79 4.28Q180.60 4.56 180.57 5.14L180.57 5.14L180.57 5.14Q180.54 5.68 180.50 8.19L180.50 8.19L180.50 8.19Q180.46 10.70 180.46 10.99L180.46 10.99L180.46 11.55L180.46 11.55Q180.46 12.56 180.80 12.66L180.80 12.66L180.80 12.66Q181.15 12.77 181.40 12.77L181.40 12.77L181.40 12.77Q182.45 12.77 183.24 12.67L183.24 12.67L183.24 12.67Q184.03 12.57 184.43 12.42L184.43 12.42L184.43 12.42Q184.83 12.28 185.09 12.10L185.09 12.10L185.09 12.10Q185.36 11.93 185.44 11.78L185.44 11.78L185.44 11.78Q185.51 11.63 185.59 11.54L185.59 11.54L185.59 11.54Q185.67 11.44 185.75 11.44L185.75 11.44L185.75 11.44Q185.92 11.44 185.92 11.68L185.92 11.68L185.92 11.68Q185.92 12.28 185.32 12.89L185.32 12.89L185.32 12.89Q184.72 13.51 184.27 13.51L184.27 13.51L184.27 13.51Q183.26 13.51 181.99 13.44L181.99 13.44L181.99 13.44Q180.73 13.37 180.42 13.37L180.42 13.37L180.42 13.37Q180.03 13.37 179.52 13.43L179.52 13.43L179.52 13.43Q179.00 13.48 178.67 13.48L178.67 13.48L178.67 13.48Q178.26 13.48 178.26 13.31L178.26 13.31L178.26 13.31Q178.26 13.22 178.34 13.15L178.34 13.15L178.34 13.15Q178.42 13.09 178.49 13.09L178.49 13.09L178.49 13.09Q178.70 13.09 178.89 12.95L178.89 12.95L178.89 12.95Q179.14 12.75 179.26 12.23L179.26 12.23L179.26 12.23Q179.37 11.70 179.37 10.21L179.37 10.21L179.37 8.47L179.37 8.47Q179.37 8.09 179.39 7.29L179.39 7.29L179.39 7.29Q179.41 6.50 179.41 6.05L179.41 6.05L179.41 6.05Q179.41 5.67 179.38 4.77L179.38 4.77L179.38 4.77Q179.37 4.37 179.03 4.14L179.03 4.14L179.03 4.14Q178.70 3.92 178.25 3.91L178.25 3.91L178.25 3.91Q178.11 3.91 178.07 3.86L178.07 3.86L178.07 3.86Q178.04 3.81 178.04 3.71ZM193.48 3.65L193.48 3.65L193.48 3.65Q193.48 3.46 193.87 3.46L193.87 3.46L193.87 3.46Q193.93 3.46 194.05 3.47L194.05 3.47L194.05 3.47Q194.18 3.49 194.25 3.49L194.25 3.49L194.25 3.49Q194.29 3.49 195.57 3.52L195.57 3.52L195.57 3.52Q196.84 3.56 197.67 3.56L197.67 3.56L197.67 3.56Q197.96 3.56 199.12 3.53L199.12 3.53L199.12 3.53Q200.27 3.50 200.47 3.50L200.47 3.50L200.47 3.50Q200.73 3.50 200.73 3.82L200.73 3.82L200.73 3.82Q200.73 3.91 200.65 4.38L200.65 4.38L200.65 4.38Q200.56 4.84 200.56 5.25L200.56 5.25L200.56 5.25Q200.56 5.38 200.49 5.47L200.49 5.47L200.49 5.47Q200.42 5.56 200.34 5.56L200.34 5.56L200.34 5.56Q200.13 5.56 200.13 5.26L200.13 5.26L200.13 5.26Q200.13 4.89 199.89 4.58L199.89 4.58L199.89 4.58Q199.65 4.27 199.30 4.26L199.30 4.26L199.30 4.26Q198.04 4.16 197.37 4.16L197.37 4.16L197.01 4.16L197.01 4.16Q196.28 4.16 196.16 4.26L196.16 4.26L196.16 4.26Q196.04 4.37 196.01 5.01L196.01 5.01L196.01 5.01Q195.96 6.02 195.96 7.35L195.96 7.35L195.96 7.35Q195.96 8.05 196.22 8.06L196.22 8.06L196.57 8.06L197.16 8.06L197.60 8.06L197.60 8.06Q198.44 8.06 198.72 8.01L198.72 8.01L198.72 8.01Q199.00 7.95 199.22 7.80L199.22 7.80L199.22 7.80Q199.49 7.62 199.54 7.28L199.54 7.28L199.54 7.28Q199.58 7.04 199.74 7.04L199.74 7.04L199.74 7.04Q199.86 7.04 199.89 7.08L199.89 7.08L199.89 7.08Q199.92 7.13 199.92 7.27L199.92 7.27L199.92 7.27Q199.92 7.36 199.86 7.91L199.86 7.91L199.86 7.91Q199.81 8.46 199.81 8.74L199.81 8.74L199.81 8.74Q199.81 9.00 199.83 9.24L199.83 9.24L199.83 9.24Q199.85 9.48 199.85 9.59L199.85 9.59L199.85 9.59Q199.85 9.94 199.75 9.94L199.75 9.94L199.75 9.94Q199.54 9.94 199.44 9.60L199.44 9.60L199.44 9.60Q199.25 9.02 199.09 8.92L199.09 8.92L199.09 8.92Q198.80 8.72 197.75 8.72L197.75 8.72L197.75 8.72Q197.33 8.72 197.07 8.72L197.07 8.72L197.07 8.72Q196.81 8.72 196.74 8.71L196.74 8.71L196.74 8.71Q196.66 8.71 196.61 8.71L196.61 8.71L196.61 8.71Q196.56 8.71 196.52 8.71L196.52 8.71L196.52 8.71Q195.94 8.71 195.94 8.97L195.94 8.97L195.94 8.97Q195.94 9.38 195.93 9.99L195.93 9.99L195.93 9.99Q195.92 10.60 195.92 10.99L195.92 10.99L195.92 11.55L195.92 11.55Q195.92 12.56 196.25 12.66L196.25 12.66L196.25 12.66Q196.60 12.77 196.85 12.77L196.85 12.77L196.85 12.77Q197.90 12.77 198.70 12.67L198.70 12.67L198.70 12.67Q199.49 12.57 199.89 12.42L199.89 12.42L199.89 12.42Q200.28 12.28 200.55 12.10L200.55 12.10L200.55 12.10Q200.82 11.93 200.89 11.78L200.89 11.78L200.89 11.78Q200.97 11.63 201.05 11.54L201.05 11.54L201.05 11.54Q201.12 11.44 201.21 11.44L201.21 11.44L201.21 11.44Q201.38 11.44 201.38 11.68L201.38 11.68L201.38 11.68Q201.38 12.28 200.77 12.89L200.77 12.89L200.77 12.89Q200.17 13.51 199.72 13.51L199.72 13.51L199.72 13.51Q198.72 13.51 197.45 13.44L197.45 13.44L197.45 13.44Q196.18 13.37 195.87 13.37L195.87 13.37L195.87 13.37Q195.48 13.37 194.89 13.43L194.89 13.43L194.89 13.43Q194.31 13.50 193.97 13.50L193.97 13.50L193.97 13.50Q193.68 13.50 193.68 13.36L193.68 13.36L193.68 13.36Q193.68 13.23 193.68 13.19L193.68 13.19L193.68 13.19Q193.68 13.15 193.72 13.12L193.72 13.12L193.72 13.12Q193.76 13.09 193.81 13.08L193.81 13.08L193.81 13.08Q193.86 13.08 193.99 13.03L193.99 13.03L193.99 13.03Q194.12 12.99 194.28 12.92L194.28 12.92L194.28 12.92Q194.61 12.75 194.72 12.26L194.72 12.26L194.72 12.26Q194.82 11.77 194.82 10.21L194.82 10.21L194.82 8.47L194.82 8.47Q194.82 8.09 194.85 7.29L194.85 7.29L194.85 7.29Q194.87 6.50 194.87 6.05L194.87 6.05L194.87 6.05Q194.87 5.67 194.84 4.77L194.84 4.77L194.84 4.77Q194.82 4.37 194.49 4.14L194.49 4.14L194.49 4.14Q194.15 3.92 193.70 3.91L193.70 3.91L193.70 3.91Q193.48 3.91 193.48 3.65ZM209.85 13.15L209.85 13.15Q209.41 12.84 209.41 12.67L209.41 12.67L209.41 12.67Q209.41 12.50 209.85 12.12L209.85 12.12L209.85 12.12Q209.90 12.07 210.01 11.93L210.01 11.93L210.01 11.93Q210.11 11.79 210.22 11.71L210.22 11.71L210.22 11.71Q210.32 11.63 210.43 11.63L210.43 11.63L210.43 11.63Q210.55 11.63 211.01 12.18L211.01 12.18L211.01 12.18Q211.05 12.22 211.17 12.33L211.17 12.33L211.17 12.33Q211.29 12.43 211.36 12.52L211.36 12.52L211.36 12.52Q211.43 12.61 211.43 12.67L211.43 12.67L211.43 12.67Q211.43 12.74 211.36 12.82L211.36 12.82L211.36 12.82Q211.29 12.89 211.15 13.01L211.15 13.01L211.15 13.01Q211.01 13.12 210.94 13.17L210.94 13.17L210.94 13.17Q210.88 13.23 210.78 13.37L210.78 13.37L210.78 13.37Q210.67 13.51 210.58 13.59L210.58 13.59L210.58 13.59Q210.49 13.66 210.41 13.66L210.41 13.66L210.41 13.66Q210.28 13.66 210.08 13.42L210.08 13.42L210.08 13.42Q209.89 13.17 209.85 13.15L209.85 13.15ZM229.45 3.68L229.45 3.68L229.45 3.68Q229.45 3.64 229.47 3.60L229.47 3.60L229.47 3.60Q229.49 3.56 229.58 3.50L229.58 3.50L229.58 3.50Q229.67 3.44 229.81 3.44L229.81 3.44L230.19 3.44L230.19 3.44Q230.52 3.44 231.27 3.49L231.27 3.49L231.27 3.49Q232.02 3.53 233.23 3.53L233.23 3.53L233.23 3.53Q234.22 3.53 234.99 3.49L234.99 3.49L234.99 3.49Q235.76 3.46 236.40 3.46L236.40 3.46L236.40 3.46Q236.64 3.46 236.64 3.79L236.64 3.79L236.64 3.79Q236.64 3.92 236.61 4.11L236.61 4.11L236.61 4.11Q236.59 4.30 236.53 4.61L236.53 4.61L236.53 4.61Q236.47 4.93 236.45 5.22L236.45 5.22L236.45 5.22Q236.42 5.50 236.24 5.50L236.24 5.50L236.24 5.50Q236.04 5.50 236.04 5.22L236.04 5.22L236.04 5.22Q236.04 4.30 235.40 4.26L235.40 4.26L235.40 4.26Q233.28 4.09 232.88 4.09L232.88 4.09L232.88 4.09Q232.25 4.09 232.10 4.24L232.10 4.24L232.10 4.24Q231.95 4.40 231.94 4.87L231.94 4.87L231.94 4.87Q231.94 4.94 231.94 4.98L231.94 4.98L231.94 4.98Q231.90 5.74 231.90 7.32L231.90 7.32L231.90 7.32Q231.90 8.01 232.15 8.02L232.15 8.02L232.15 8.02Q232.22 8.02 232.34 8.03L232.34 8.03L232.34 8.03Q232.46 8.04 232.50 8.04L232.50 8.04L232.50 8.04Q232.60 8.04 232.79 8.03L232.79 8.03L232.79 8.03Q232.99 8.02 233.10 8.02L233.10 8.02L233.53 8.02L233.53 8.02Q234.37 8.02 234.65 7.97L234.65 7.97L234.65 7.97Q234.92 7.92 235.14 7.77L235.14 7.77L235.14 7.77Q235.27 7.69 235.34 7.57L235.34 7.57L235.34 7.57Q235.41 7.46 235.44 7.31L235.44 7.31L235.44 7.31Q235.47 7.15 235.51 7.08L235.51 7.08L235.51 7.08Q235.55 7.01 235.68 7.01L235.68 7.01L235.68 7.01Q235.80 7.01 235.83 7.06L235.83 7.06L235.83 7.06Q235.86 7.10 235.86 7.24L235.86 7.24L235.86 7.24Q235.86 7.34 235.79 7.73L235.79 7.73L235.79 7.73Q235.73 8.12 235.73 8.40L235.73 8.40L235.73 8.40Q235.73 8.67 235.78 9.05L235.78 9.05L235.78 9.05Q235.83 9.44 235.83 9.55L235.83 9.55L235.83 9.55Q235.83 9.77 235.78 9.83L235.78 9.83L235.78 9.83Q235.73 9.90 235.63 9.90L235.63 9.90L235.63 9.90Q235.40 9.90 235.34 9.55L235.34 9.55L235.34 9.55Q235.34 9.52 235.33 9.42L235.33 9.42L235.33 9.42Q235.31 9.32 235.31 9.28L235.31 9.28L235.31 9.28Q235.30 9.24 235.27 9.16L235.27 9.16L235.27 9.16Q235.24 9.09 235.21 9.04L235.21 9.04L235.21 9.04Q235.19 9.00 235.14 8.95L235.14 8.95L235.14 8.95Q235.10 8.90 235.03 8.88L235.03 8.88L235.03 8.88Q234.84 8.79 234.33 8.74L234.33 8.74L234.33 8.74Q233.83 8.68 233.67 8.68L233.67 8.68L232.46 8.68L232.46 8.68Q231.88 8.68 231.88 8.95L231.88 8.95L231.88 8.95Q231.88 9.35 231.87 9.96L231.87 9.96L231.87 9.96Q231.85 10.57 231.85 10.96L231.85 10.96L231.85 10.96Q231.85 11.06 231.85 11.25L231.85 11.25L231.85 11.25Q231.84 11.44 231.84 11.52L231.84 11.52L231.84 11.52Q231.84 11.80 231.90 12.08L231.90 12.08L231.90 12.08Q231.95 12.36 232.22 12.67L232.22 12.67L232.22 12.67Q232.50 12.98 232.96 12.98L232.96 12.98L232.96 12.98Q233.38 12.98 233.38 13.23L233.38 13.23L233.38 13.23Q233.38 13.27 233.35 13.33L233.35 13.33L233.35 13.33Q233.32 13.38 233.22 13.44L233.22 13.44L233.22 13.44Q233.11 13.50 232.95 13.50L232.95 13.50L232.95 13.50Q232.72 13.50 232.24 13.44L232.24 13.44L232.24 13.44Q231.76 13.38 231.59 13.38L231.59 13.38L231.59 13.38Q231.20 13.38 230.71 13.43L230.71 13.43L230.71 13.43Q230.23 13.47 229.89 13.47L229.89 13.47L229.89 13.47Q229.61 13.47 229.61 13.31L229.61 13.31L229.61 13.31Q229.61 13.13 229.68 13.09L229.68 13.09L229.68 13.09Q229.74 13.05 230.22 12.88L230.22 12.88L230.22 12.88Q230.58 12.75 230.66 12.13L230.66 12.13L230.66 12.13Q230.75 11.51 230.76 9.60L230.76 9.60L230.76 9.60Q230.76 8.86 230.76 8.44L230.76 8.44L230.76 8.44Q230.76 8.06 230.78 7.26L230.78 7.26L230.78 7.26Q230.80 6.45 230.80 6.01L230.80 6.01L230.80 5.19L230.80 5.19Q230.80 4.27 230.15 3.96L230.15 3.96L230.15 3.96Q230.05 3.92 229.91 3.90L229.91 3.90L229.91 3.90Q229.77 3.88 229.68 3.88L229.68 3.88L229.68 3.88Q229.59 3.88 229.52 3.83L229.52 3.83L229.52 3.83Q229.45 3.78 229.45 3.68ZM243.38 13.33L243.38 13.33L243.38 13.33Q243.38 13.13 243.59 13.06L243.59 13.06L243.59 13.06Q244.03 12.89 244.37 12.31L244.37 12.31L244.37 12.31Q244.71 11.73 246.04 8.83L246.04 8.83L246.04 8.83Q247.41 5.87 248.46 3.63L248.46 3.63L248.46 3.63Q248.56 3.42 248.63 3.36L248.63 3.36L248.63 3.36Q248.71 3.30 248.88 3.30L248.88 3.30L248.88 3.30Q249.00 3.30 249.05 3.36L249.05 3.36L249.05 3.36Q249.09 3.42 249.23 3.82L249.23 3.82L249.23 3.82Q249.31 4.06 249.38 4.23L249.38 4.23L249.38 4.23Q249.44 4.40 249.58 4.77L249.58 4.77L249.58 4.77Q249.72 5.15 249.89 5.56L249.89 5.56L249.89 5.56Q250.33 6.66 251.43 9.22L251.43 9.22L251.43 9.22Q252.53 11.77 252.63 11.98L252.63 11.98L252.63 11.98Q252.87 12.46 253.16 12.71L253.16 12.71L253.16 12.71Q253.46 12.95 253.67 12.97L253.67 12.97L253.67 12.97Q253.89 12.99 254.04 13.04L254.04 13.04L254.04 13.04Q254.18 13.09 254.18 13.26L254.18 13.26L254.18 13.26Q254.18 13.47 253.81 13.47L253.81 13.47L253.81 13.47Q253.65 13.47 253.20 13.43L253.20 13.43L253.20 13.43Q252.76 13.38 252.55 13.38L252.55 13.38L252.55 13.38Q252.28 13.38 251.86 13.41L251.86 13.41L251.86 13.41Q251.44 13.44 251.24 13.44L251.24 13.44L251.24 13.44Q250.81 13.44 250.69 13.40L250.69 13.40L250.69 13.40Q250.57 13.37 250.57 13.24L250.57 13.24L250.57 13.24Q250.57 13.15 250.68 13.08L250.68 13.08L250.68 13.08Q250.80 13.02 250.92 13.00L250.92 13.00L250.92 13.00Q251.05 12.98 251.16 12.87L251.16 12.87L251.16 12.87Q251.27 12.77 251.27 12.59L251.27 12.59L251.27 12.59Q251.27 12.28 250.92 11.33L250.92 11.33L250.92 11.33Q250.57 10.37 250.33 9.93L250.33 9.93L250.33 9.93Q250.21 9.69 249.76 9.69L249.76 9.69L249.76 9.69Q249.69 9.69 249.14 9.70L249.14 9.70L249.14 9.70Q248.60 9.72 248.07 9.72L248.07 9.72L247.32 9.72L247.32 9.72Q246.69 9.72 246.53 9.79L246.53 9.79L246.53 9.79Q246.37 9.86 246.25 10.12L246.25 10.12L246.25 10.12Q246.16 10.30 245.97 10.70L245.97 10.70L245.97 10.70Q245.77 11.10 245.70 11.26L245.70 11.26L245.70 11.26Q245.63 11.41 245.53 11.65L245.53 11.65L245.53 11.65Q245.42 11.90 245.38 12.05L245.38 12.05L245.38 12.05Q245.35 12.19 245.35 12.31L245.35 12.31L245.35 12.31Q245.35 12.63 245.51 12.80L245.51 12.80L245.51 12.80Q245.67 12.96 245.87 12.98L245.87 12.98L245.87 12.98Q246.06 13.01 246.22 13.06L246.22 13.06L246.22 13.06Q246.39 13.12 246.39 13.26L246.39 13.26L246.39 13.26Q246.39 13.36 246.34 13.40L246.34 13.40L246.34 13.40Q246.30 13.45 246.15 13.45L246.15 13.45L246.15 13.45Q246.06 13.45 245.66 13.45L245.66 13.45L245.66 13.45Q245.27 13.44 244.99 13.44L244.99 13.44L244.99 13.44Q244.68 13.44 244.29 13.47L244.29 13.47L244.29 13.47Q243.91 13.50 243.78 13.50L243.78 13.50L243.78 13.50Q243.38 13.50 243.38 13.33ZM246.89 8.71L246.89 8.71L246.89 8.71Q246.89 8.89 247.02 8.93L247.02 8.93L247.02 8.93Q247.14 8.97 247.60 8.97L247.60 8.97L248.04 8.97L249.37 8.96L249.37 8.96Q249.91 8.96 249.91 8.74L249.91 8.74L249.91 8.74Q249.91 8.55 249.23 7.01L249.23 7.01L249.23 7.01Q248.54 5.46 248.36 5.46L248.36 5.46L248.36 5.46Q248.23 5.46 247.56 7.01L247.56 7.01L247.56 7.01Q246.89 8.55 246.89 8.71ZM262.08 10.82L262.08 10.82L262.08 10.82Q262.08 10.53 262.28 10.53L262.28 10.53L262.28 10.53Q262.46 10.53 262.50 10.67L262.50 10.67L262.50 10.67Q262.64 11.00 262.76 11.25L262.76 11.25L262.76 11.25Q262.88 11.49 263.14 11.85L263.14 11.85L263.14 11.85Q263.41 12.21 263.72 12.44L263.72 12.44L263.72 12.44Q264.03 12.67 264.51 12.84L264.51 12.84L264.51 12.84Q264.99 13.01 265.57 13.01L265.57 13.01L265.57 13.01Q266.62 13.01 267.25 12.45L267.25 12.45L267.25 12.45Q267.89 11.90 267.89 11.00L267.89 11.00L267.89 11.00Q267.89 10.35 267.46 9.90L267.46 9.90L267.46 9.90Q267.02 9.46 266.46 9.27L266.46 9.27L266.46 9.27Q265.90 9.09 265.04 8.77L265.04 8.77L265.04 8.77Q264.18 8.46 263.63 8.13L263.63 8.13L263.63 8.13Q262.36 7.38 262.36 6.08L262.36 6.08L262.36 6.08Q262.36 4.83 263.26 4.08L263.26 4.08L263.26 4.08Q264.17 3.33 265.61 3.33L265.61 3.33L265.61 3.33Q266.14 3.33 266.88 3.56L266.88 3.56L266.88 3.56Q267.61 3.79 267.62 3.79L267.62 3.79L267.62 3.79Q267.67 3.79 267.78 3.74L267.78 3.74L267.78 3.74Q267.89 3.68 267.95 3.68L267.95 3.68L267.95 3.68Q268.13 3.68 268.16 3.79L268.16 3.79L268.16 3.79Q268.45 5.49 268.45 5.70L268.45 5.70L268.45 5.70Q268.45 6.09 268.25 6.09L268.25 6.09L268.25 6.09Q268.13 6.09 268.06 5.89L268.06 5.89L268.06 5.89Q267.89 5.49 267.73 5.24L267.73 5.24L267.73 5.24Q267.57 4.98 267.50 4.91L267.50 4.91L267.50 4.91Q267.43 4.84 267.13 4.58L267.13 4.58L267.13 4.58Q266.38 3.91 265.30 3.91L265.30 3.91L265.30 3.91Q264.43 3.91 263.84 4.33L263.84 4.33L263.84 4.33Q263.26 4.75 263.26 5.46L263.26 5.46L263.26 5.46Q263.26 6.09 263.60 6.50L263.60 6.50L263.60 6.50Q263.94 6.90 264.52 7.13L264.52 7.13L264.52 7.13Q265.09 7.35 265.72 7.55L265.72 7.55L265.72 7.55Q266.35 7.74 267.06 8.09L267.06 8.09L267.06 8.09Q267.76 8.44 268.23 8.93L268.23 8.93L268.23 8.93Q268.79 9.53 268.79 10.43L268.79 10.43L268.79 10.43Q268.79 11.90 267.85 12.76L267.85 12.76L267.85 12.76Q266.91 13.62 265.52 13.62L265.52 13.62L265.52 13.62Q264.56 13.62 263.97 13.52L263.97 13.52L263.97 13.52Q263.38 13.41 262.77 13.09L262.77 13.09L262.77 13.09Q262.58 12.98 262.33 12.00L262.33 12.00L262.33 12.00Q262.08 11.02 262.08 10.82ZM276.88 5.32L276.88 5.32L276.88 5.32Q276.88 4.76 277.02 3.88L277.02 3.88L277.02 3.88Q277.02 3.85 277.03 3.78L277.03 3.78L277.03 3.78Q277.03 3.71 277.04 3.69L277.04 3.69L277.04 3.69Q277.05 3.67 277.05 3.62L277.05 3.62L277.05 3.62Q277.06 3.57 277.07 3.55L277.07 3.55L277.07 3.55Q277.09 3.53 277.11 3.49L277.11 3.49L277.11 3.49Q277.13 3.46 277.16 3.44L277.16 3.44L277.16 3.44Q277.19 3.43 277.23 3.42L277.23 3.42L277.23 3.42Q277.27 3.40 277.33 3.39L277.33 3.39L277.33 3.39Q277.38 3.39 277.45 3.39L277.45 3.39L277.45 3.39Q277.68 3.39 278.63 3.44L278.63 3.44L278.63 3.44Q279.59 3.50 281.40 3.50L281.40 3.50L281.40 3.50Q284.48 3.50 285.71 3.43L285.71 3.43L285.71 3.43Q285.73 3.43 285.76 3.42L285.76 3.42L285.76 3.42Q285.80 3.42 285.81 3.42L285.81 3.42L285.81 3.42Q285.96 3.42 286.02 3.50L286.02 3.50L286.02 3.50Q286.08 3.58 286.08 3.65L286.08 3.65L286.08 3.65Q286.08 3.75 286.12 4.24L286.12 4.24L286.12 4.24Q286.16 4.73 286.16 4.79L286.16 4.79L286.16 4.79Q286.16 5.14 286.12 5.23L286.12 5.23L286.12 5.23Q286.08 5.32 285.94 5.32L285.94 5.32L285.94 5.32Q285.82 5.32 285.78 5.15L285.78 5.15L285.78 5.15Q285.67 4.75 285.59 4.60L285.59 4.60L285.59 4.60Q285.50 4.45 285.22 4.34L285.22 4.34L285.22 4.34Q284.94 4.23 284.37 4.23L284.37 4.23L282.55 4.23L282.55 4.23Q282.21 4.23 282.13 4.36L282.13 4.36L282.13 4.36Q282.06 4.49 282.06 5.12L282.06 5.12L282.06 5.81L282.06 5.81Q282.06 7.69 282.04 9.11L282.04 9.11L282.04 9.11Q282.02 10.54 282.02 10.93L282.02 10.93L282.02 10.93Q282.02 11.13 282.01 11.43L282.01 11.43L282.01 11.43Q282.00 11.73 282.00 11.84L282.00 11.84L282.00 11.84Q282.00 12.45 282.20 12.64L282.20 12.64L282.20 12.64Q282.38 12.81 282.60 12.90L282.60 12.90L282.60 12.90Q282.83 12.99 282.99 13.01L282.99 13.01L282.99 13.01Q283.15 13.02 283.26 13.08L283.26 13.08L283.26 13.08Q283.37 13.13 283.37 13.26L283.37 13.26L283.37 13.26Q283.37 13.41 283.30 13.45L283.30 13.45L283.30 13.45Q283.23 13.50 283.04 13.50L283.04 13.50L283.04 13.50Q282.87 13.50 282.30 13.44L282.30 13.44L282.30 13.44Q281.72 13.38 281.48 13.38L281.48 13.38L281.48 13.38Q281.32 13.38 280.81 13.43L280.81 13.43L280.81 13.43Q280.29 13.48 280.06 13.48L280.06 13.48L280.06 13.48Q279.54 13.48 279.54 13.26L279.54 13.26L279.54 13.26Q279.54 13.12 279.62 13.07L279.62 13.07L279.62 13.07Q279.71 13.02 279.95 12.98L279.95 12.98L279.95 12.98Q280.20 12.95 280.27 12.94L280.27 12.94L280.27 12.94Q280.74 12.82 280.80 12.38L280.80 12.38L280.80 12.38Q280.94 11.14 280.94 7.08L280.94 7.08L280.92 4.58L280.92 4.58Q280.92 4.31 280.77 4.25L280.77 4.25L280.77 4.25Q280.62 4.19 279.86 4.19L279.86 4.19L279.86 4.19Q278.88 4.19 278.38 4.24L278.38 4.24L278.38 4.24Q277.89 4.30 277.80 4.35L277.80 4.35L277.80 4.35Q277.72 4.40 277.61 4.54L277.61 4.54L277.61 4.54Q277.48 4.70 277.40 4.91L277.40 4.91L277.40 4.91Q277.33 5.11 277.31 5.24L277.31 5.24L277.31 5.24Q277.28 5.38 277.22 5.47L277.22 5.47L277.22 5.47Q277.16 5.56 277.03 5.56L277.03 5.56L277.03 5.56Q276.88 5.56 276.88 5.32ZM293.40 13.15L293.40 13.15Q292.96 12.84 292.96 12.67L292.96 12.67L292.96 12.67Q292.96 12.50 293.40 12.12L293.40 12.12L293.40 12.12Q293.45 12.07 293.56 11.93L293.56 11.93L293.56 11.93Q293.66 11.79 293.77 11.71L293.77 11.71L293.77 11.71Q293.87 11.63 293.99 11.63L293.99 11.63L293.99 11.63Q294.10 11.63 294.56 12.18L294.56 12.18L294.56 12.18Q294.60 12.22 294.72 12.33L294.72 12.33L294.72 12.33Q294.84 12.43 294.91 12.52L294.91 12.52L294.91 12.52Q294.98 12.61 294.98 12.67L294.98 12.67L294.98 12.67Q294.98 12.74 294.91 12.82L294.91 12.82L294.91 12.82Q294.84 12.89 294.70 13.01L294.70 13.01L294.70 13.01Q294.56 13.12 294.49 13.17L294.49 13.17L294.49 13.17Q294.43 13.23 294.33 13.37L294.33 13.37L294.33 13.37Q294.22 13.51 294.13 13.59L294.13 13.59L294.13 13.59Q294.04 13.66 293.96 13.66L293.96 13.66L293.96 13.66Q293.83 13.66 293.64 13.42L293.64 13.42L293.64 13.42Q293.44 13.17 293.40 13.15L293.40 13.15Z"></path></g></svg>