<svg data-v-423bf9ae="" xmlns="http://www.w3.org/2000/svg" viewBox="0 0 219.5848766621257 60" class="font"><!----><!----><!----><g data-v-423bf9ae="" id="2b0a1a65-ada5-4500-aade-3ea20fd3770a" fill="white" transform="matrix(4.447739141438599,0,0,4.447739141438599,-5.337285813700916,-9.69607090999903)"><path d="M5.95 8.99L5.95 8.99L5.95 8.99Q6.17 9.27 6.52 9.72L6.52 9.72L6.52 9.72Q6.86 10.18 7.22 10.73L7.22 10.73L7.22 10.73Q7.59 11.28 7.95 11.89L7.95 11.89L7.95 11.89Q8.30 12.49 8.55 13.05L8.55 13.05L7.07 13.05L7.07 13.05Q6.79 12.52 6.46 11.97L6.46 11.97L6.46 11.97Q6.13 11.42 5.80 10.93L5.80 10.93L5.80 10.93Q5.46 10.43 5.13 10.00L5.13 10.00L5.13 10.00Q4.80 9.56 4.54 9.24L4.54 9.24L4.54 9.24Q4.35 9.25 4.17 9.25L4.17 9.25L4.17 9.25Q3.98 9.25 3.78 9.25L3.78 9.25L2.56 9.25L2.56 13.05L1.20 13.05L1.20 3.49L1.20 3.49Q1.78 3.35 2.48 3.30L2.48 3.30L2.48 3.30Q3.19 3.25 3.78 3.25L3.78 3.25L3.78 3.25Q5.82 3.25 6.90 4.02L6.90 4.02L6.90 4.02Q7.97 4.79 7.97 6.31L7.97 6.31L7.97 6.31Q7.97 7.28 7.46 7.97L7.46 7.97L7.46 7.97Q6.94 8.65 5.95 8.99ZM3.89 4.44L3.89 4.44L3.89 4.44Q3.02 4.44 2.56 4.48L2.56 4.48L2.56 8.13L3.53 8.13L3.53 8.13Q4.23 8.13 4.79 8.06L4.79 8.06L4.79 8.06Q5.35 7.99 5.73 7.80L5.73 7.80L5.73 7.80Q6.12 7.60 6.33 7.25L6.33 7.25L6.33 7.25Q6.54 6.89 6.54 6.30L6.54 6.30L6.54 6.30Q6.54 5.75 6.33 5.39L6.33 5.39L6.33 5.39Q6.12 5.03 5.76 4.82L5.76 4.82L5.76 4.82Q5.40 4.61 4.92 4.52L4.92 4.52L4.92 4.52Q4.44 4.44 3.89 4.44ZM11.23 5.77L11.23 13.05L9.93 13.05L9.93 5.77L11.23 5.77ZM10.57 4.45L10.57 4.45L10.57 4.45Q10.22 4.45 9.98 4.22L9.98 4.22L9.98 4.22Q9.73 3.99 9.73 3.60L9.73 3.60L9.73 3.60Q9.73 3.21 9.98 2.97L9.98 2.97L9.98 2.97Q10.22 2.74 10.57 2.74L10.57 2.74L10.57 2.74Q10.92 2.74 11.17 2.97L11.17 2.97L11.17 2.97Q11.41 3.21 11.41 3.60L11.41 3.60L11.41 3.60Q11.41 3.99 11.17 4.22L11.17 4.22L11.17 4.22Q10.92 4.45 10.57 4.45ZM18.17 11.91L18.17 7.31L18.17 7.31Q17.93 7.11 17.49 6.93L17.49 6.93L17.49 6.93Q17.04 6.75 16.51 6.75L16.51 6.75L16.51 6.75Q15.95 6.75 15.55 6.95L15.55 6.95L15.55 6.95Q15.15 7.15 14.90 7.51L14.90 7.51L14.90 7.51Q14.64 7.87 14.53 8.36L14.53 8.36L14.53 8.36Q14.42 8.85 14.42 9.41L14.42 9.41L14.42 9.41Q14.42 10.68 15.05 11.38L15.05 11.38L15.05 11.38Q15.68 12.07 16.73 12.07L16.73 12.07L16.73 12.07Q17.26 12.07 17.62 12.02L17.62 12.02L17.62 12.02Q17.98 11.97 18.17 11.91L18.17 11.91ZM18.17 6.09L18.17 2.41L19.47 2.18L19.47 12.84L19.47 12.84Q19.03 12.96 18.33 13.09L18.33 13.09L18.33 13.09Q17.63 13.22 16.72 13.22L16.72 13.22L16.72 13.22Q15.88 13.22 15.20 12.95L15.20 12.95L15.20 12.95Q14.53 12.68 14.06 12.19L14.06 12.19L14.06 12.19Q13.58 11.70 13.32 11.00L13.32 11.00L13.32 11.00Q13.06 10.29 13.06 9.41L13.06 9.41L13.06 9.41Q13.06 8.57 13.28 7.87L13.28 7.87L13.28 7.87Q13.50 7.17 13.92 6.66L13.92 6.66L13.92 6.66Q14.34 6.16 14.95 5.88L14.95 5.88L14.95 5.88Q15.55 5.60 16.34 5.60L16.34 5.60L16.34 5.60Q16.97 5.60 17.45 5.77L17.45 5.77L17.45 5.77Q17.93 5.94 18.17 6.09L18.17 6.09ZM21.31 9.42L21.31 9.42L21.31 9.42Q21.31 8.46 21.59 7.74L21.59 7.74L21.59 7.74Q21.87 7.01 22.33 6.54L22.33 6.54L22.33 6.54Q22.79 6.06 23.39 5.82L23.39 5.82L23.39 5.82Q24.00 5.59 24.63 5.59L24.63 5.59L24.63 5.59Q26.10 5.59 26.88 6.50L26.88 6.50L26.88 6.50Q27.66 7.42 27.66 9.30L27.66 9.30L27.66 9.30Q27.66 9.38 27.66 9.51L27.66 9.51L27.66 9.51Q27.66 9.65 27.65 9.76L27.65 9.76L22.67 9.76L22.67 9.76Q22.75 10.89 23.32 11.48L23.32 11.48L23.32 11.48Q23.90 12.07 25.12 12.07L25.12 12.07L25.12 12.07Q25.80 12.07 26.27 11.95L26.27 11.95L26.27 11.95Q26.74 11.83 26.98 11.72L26.98 11.72L27.16 12.81L27.16 12.81Q26.92 12.94 26.33 13.08L26.33 13.08L26.33 13.08Q25.73 13.22 24.98 13.22L24.98 13.22L24.98 13.22Q24.02 13.22 23.33 12.93L23.33 12.93L23.33 12.93Q22.64 12.64 22.19 12.14L22.19 12.14L22.19 12.14Q21.74 11.63 21.53 10.94L21.53 10.94L21.53 10.94Q21.31 10.25 21.31 9.42ZM22.69 8.71L26.31 8.71L26.31 8.71Q26.32 7.83 25.87 7.26L25.87 7.26L25.87 7.26Q25.41 6.69 24.61 6.69L24.61 6.69L24.61 6.69Q24.16 6.69 23.82 6.87L23.82 6.87L23.82 6.87Q23.48 7.04 23.24 7.32L23.24 7.32L23.24 7.32Q23.00 7.60 22.87 7.97L22.87 7.97L22.87 7.97Q22.74 8.33 22.69 8.71L22.69 8.71ZM32.23 5.61L32.23 5.61L32.23 5.61Q32.40 5.61 32.61 5.63L32.61 5.63L32.61 5.63Q32.83 5.66 33.04 5.69L33.04 5.69L33.04 5.69Q33.25 5.73 33.43 5.76L33.43 5.76L33.43 5.76Q33.60 5.80 33.68 5.82L33.68 5.82L33.46 6.96L33.46 6.96Q33.31 6.90 32.95 6.83L32.95 6.83L32.95 6.83Q32.59 6.75 32.03 6.75L32.03 6.75L32.03 6.75Q31.67 6.75 31.31 6.83L31.31 6.83L31.31 6.83Q30.95 6.90 30.84 6.93L30.84 6.93L30.84 13.05L29.54 13.05L29.54 6.08L29.54 6.08Q30.00 5.91 30.69 5.76L30.69 5.76L30.69 5.76Q31.37 5.61 32.23 5.61ZM33.75 15.67L33.75 15.67L33.75 15.67Q33.59 15.67 33.32 15.62L33.32 15.62L33.32 15.62Q33.05 15.58 32.87 15.51L32.87 15.51L33.04 14.45L33.04 14.45Q33.18 14.49 33.36 14.52L33.36 14.52L33.36 14.52Q33.54 14.55 33.70 14.55L33.70 14.55L33.70 14.55Q34.37 14.55 34.66 14.13L34.66 14.13L34.66 14.13Q34.94 13.72 34.94 12.92L34.94 12.92L34.94 5.77L36.25 5.77L36.25 12.91L36.25 12.91Q36.25 14.31 35.61 14.99L35.61 14.99L35.61 14.99Q34.97 15.67 33.75 15.67ZM35.59 4.45L35.59 4.45L35.59 4.45Q35.24 4.45 34.99 4.22L34.99 4.22L34.99 4.22Q34.75 3.99 34.75 3.60L34.75 3.60L34.75 3.60Q34.75 3.21 34.99 2.97L34.99 2.97L34.99 2.97Q35.24 2.74 35.59 2.74L35.59 2.74L35.59 2.74Q35.94 2.74 36.18 2.97L36.18 2.97L36.18 2.97Q36.43 3.21 36.43 3.60L36.43 3.60L36.43 3.60Q36.43 3.99 36.18 4.22L36.18 4.22L36.18 4.22Q35.94 4.45 35.59 4.45ZM38.08 9.42L38.08 9.42L38.08 9.42Q38.08 8.46 38.36 7.74L38.36 7.74L38.36 7.74Q38.64 7.01 39.10 6.54L39.10 6.54L39.10 6.54Q39.56 6.06 40.17 5.82L40.17 5.82L40.17 5.82Q40.77 5.59 41.40 5.59L41.40 5.59L41.40 5.59Q42.87 5.59 43.65 6.50L43.65 6.50L43.65 6.50Q44.44 7.42 44.44 9.30L44.44 9.30L44.44 9.30Q44.44 9.38 44.44 9.51L44.44 9.51L44.44 9.51Q44.44 9.65 44.42 9.76L44.42 9.76L39.44 9.76L39.44 9.76Q39.52 10.89 40.10 11.48L40.10 11.48L40.10 11.48Q40.67 12.07 41.89 12.07L41.89 12.07L41.89 12.07Q42.57 12.07 43.04 11.95L43.04 11.95L43.04 11.95Q43.51 11.83 43.75 11.72L43.75 11.72L43.93 12.81L43.93 12.81Q43.69 12.94 43.10 13.08L43.10 13.08L43.10 13.08Q42.50 13.22 41.75 13.22L41.75 13.22L41.75 13.22Q40.80 13.22 40.10 12.93L40.10 12.93L40.10 12.93Q39.41 12.64 38.96 12.14L38.96 12.14L38.96 12.14Q38.51 11.63 38.30 10.94L38.30 10.94L38.30 10.94Q38.08 10.25 38.08 9.42ZM39.47 8.71L43.08 8.71L43.08 8.71Q43.09 7.83 42.64 7.26L42.64 7.26L42.64 7.26Q42.18 6.69 41.38 6.69L41.38 6.69L41.38 6.69Q40.94 6.69 40.59 6.87L40.59 6.87L40.59 6.87Q40.25 7.04 40.01 7.32L40.01 7.32L40.01 7.32Q39.77 7.60 39.64 7.97L39.64 7.97L39.64 7.97Q39.51 8.33 39.47 8.71L39.47 8.71ZM47.53 3.51L47.53 5.77L50.29 5.77L50.29 6.86L47.53 6.86L47.53 10.22L47.53 10.22Q47.53 10.77 47.61 11.12L47.61 11.12L47.61 11.12Q47.70 11.48 47.87 11.68L47.87 11.68L47.87 11.68Q48.03 11.89 48.29 11.97L48.29 11.97L48.29 11.97Q48.54 12.05 48.87 12.05L48.87 12.05L48.87 12.05Q49.46 12.05 49.82 11.92L49.82 11.92L49.82 11.92Q50.18 11.79 50.32 11.73L50.32 11.73L50.57 12.81L50.57 12.81Q50.37 12.91 49.88 13.05L49.88 13.05L49.88 13.05Q49.39 13.20 48.76 13.20L48.76 13.20L48.76 13.20Q48.02 13.20 47.54 13.01L47.54 13.01L47.54 13.01Q47.05 12.82 46.76 12.45L46.76 12.45L46.76 12.45Q46.47 12.07 46.35 11.52L46.35 11.52L46.35 11.52Q46.23 10.96 46.23 10.23L46.23 10.23L46.23 3.74L47.53 3.51Z"></path></g><!----><!----></svg>